<svg xmlns="http://www.w3.org/2000/svg" width="134" height="132" fill="none"><g clip-path="url(#a)"><path fill="#00005B" d="M23.73 0h86.541a23.494 23.494 0 0 1 9.084 1.819 23.693 23.693 0 0 1 7.701 5.196 23.981 23.981 0 0 1 5.144 7.781 24.174 24.174 0 0 1 1.8 9.178v84.052a24.174 24.174 0 0 1-1.8 9.178 23.984 23.984 0 0 1-5.144 7.781 23.708 23.708 0 0 1-7.701 5.196 23.49 23.49 0 0 1-9.084 1.819H23.729a23.492 23.492 0 0 1-9.084-1.819 23.708 23.708 0 0 1-7.701-5.196 23.973 23.973 0 0 1-5.144-7.781 24.167 24.167 0 0 1-1.8-9.178V23.974a24.167 24.167 0 0 1 1.8-9.178 23.97 23.97 0 0 1 5.144-7.78 23.693 23.693 0 0 1 7.7-5.197A23.497 23.497 0 0 1 23.73 0Z"/><path fill="#99F" d="M53.823 78.974h-20.77L28.81 92.287a.989.989 0 0 1-.379.603.97.97 0 0 1-.682.187H17.253c-.615 0-.782-.338-.615-1.016l17.979-52.066c.167-.564.335-1.072.558-1.749.225-1.209.337-2.436.335-3.666a.569.569 0 0 1 .103-.4.558.558 0 0 1 .344-.221h14.46c.391 0 .67.17.726.451l20.38 57.82c.167.621 0 .903-.559.903H59.295a.837.837 0 0 1-.559-.146.851.851 0 0 1-.334-.474l-4.579-13.539ZM36.292 67.75h14.181a80.728 80.728 0 0 0-1.284-4.062c-.502-1.466-1.005-3.159-1.507-4.851-.503-1.692-1.061-3.441-1.62-5.19a122.998 122.998 0 0 1-1.507-5.02 315.75 315.75 0 0 0-1.228-4.4h-.112a69.852 69.852 0 0 1-1.898 7.277c-.838 2.707-1.675 5.528-2.569 8.348-.725 2.877-1.619 5.528-2.456 7.898ZM104.632 73.785h-17.7c.212 1.78.802 3.493 1.732 5.02a8.875 8.875 0 0 0 4.075 3.385 17.209 17.209 0 0 0 7.147 1.41 33.248 33.248 0 0 0 5.807-.62 20.807 20.807 0 0 0 4.969-1.298c.279-.226.447-.113.447.451v8.631c-.01.23-.048.457-.112.677a1.311 1.311 0 0 1-.391.395 23.712 23.712 0 0 1-5.583 1.692c-2.612.508-5.27.735-7.929.677-4.243 0-7.816-.677-10.72-1.974a18.819 18.819 0 0 1-7.035-5.36 20.775 20.775 0 0 1-3.852-7.389 29.514 29.514 0 0 1 .223-17.205 23.094 23.094 0 0 1 4.188-7.728 20.267 20.267 0 0 1 6.756-5.36c2.624-1.297 5.75-1.748 9.324-1.748 2.977-.07 5.932.527 8.654 1.749a15.395 15.395 0 0 1 5.862 4.513 20.712 20.712 0 0 1 3.35 6.43 22.405 22.405 0 0 1 1.061 6.882c0 1.354-.056 2.539-.111 3.61-.056 1.072-.168 1.862-.224 2.37a.84.84 0 0 1-.781.733c-.335 0-.95.057-1.843.113-1.075.123-2.156.18-3.238.17-1.284 0-2.624-.226-4.076-.226Zm-17.7-8.236h11.782c1.451 0 2.512 0 3.182-.057a2.708 2.708 0 0 0 1.284-.451v-.564a6.547 6.547 0 0 0-.335-2.087 7.467 7.467 0 0 0-2.77-3.821 7.34 7.34 0 0 0-4.488-1.369 7.798 7.798 0 0 0-4.34 1.034 7.908 7.908 0 0 0-3.086 3.253 11.785 11.785 0 0 0-1.228 4.062Z"/></g><defs><clipPath id="a"><path fill="#fff" d="M0 0h134v132H0z"/></clipPath></defs></svg>