<svg xmlns="http://www.w3.org/2000/svg" width="137" height="132" fill="none"><g clip-path="url(#a)"><path fill="#49021F" d="M24.26 0h88.48a24.49 24.49 0 0 1 9.287 1.819 24.253 24.253 0 0 1 7.874 5.196 23.938 23.938 0 0 1 5.258 7.781A23.692 23.692 0 0 1 137 23.974v84.052a23.691 23.691 0 0 1-1.841 9.178 23.94 23.94 0 0 1-5.258 7.781 24.269 24.269 0 0 1-7.874 5.196A24.485 24.485 0 0 1 112.74 132H24.26a24.485 24.485 0 0 1-9.287-1.819 24.275 24.275 0 0 1-7.874-5.196 23.937 23.937 0 0 1-5.258-7.781A23.707 23.707 0 0 1 0 108.026V23.974a23.707 23.707 0 0 1 1.84-9.178A23.935 23.935 0 0 1 7.1 7.016a24.26 24.26 0 0 1 7.874-5.197A24.49 24.49 0 0 1 24.26 0Z"/><path fill="#F36" d="M49.776 34.523V92.4c0 .62-.285.903-.799.903H37.79c-.514 0-.742-.282-.742-.903V34.523c0-.508.285-.733.799-.733h11.131a.654.654 0 0 1 .664.319c.043.075.07.159.078.245a.209.209 0 0 1 .057.17ZM82.656 94.205a28.672 28.672 0 0 1-12.273-2.538 19.82 19.82 0 0 1-8.62-7.672c-2.111-3.441-3.139-7.728-3.139-12.862a22.955 22.955 0 0 1 3.14-11.902 23.579 23.579 0 0 1 9.076-8.744c3.996-2.2 8.79-3.272 14.442-3.272.4-.004.8.015 1.199.057.514.056 1.085.056 1.77.113V29.559c0-.395.17-.62.57-.62h11.588a.52.52 0 0 1 .364.087c.106.073.18.183.207.307V83.15c0 1.015.057 2.143.114 3.384s.172 2.313.229 3.272a.91.91 0 0 1-.571.903 43.992 43.992 0 0 1-9.305 2.707c-2.9.52-5.843.784-8.79.79Zm5.594-11.282v-24.82a14.738 14.738 0 0 0-1.54-.282c-.629-.057-1.257-.113-1.884-.113a14.21 14.21 0 0 0-6.45 1.466c-1.952.96-3.622 2.398-4.853 4.175-1.256 1.805-1.884 4.23-1.884 7.164-.05 1.98.28 3.951.97 5.81a11.007 11.007 0 0 0 2.57 4.005 9.89 9.89 0 0 0 3.881 2.257c1.53.495 3.13.742 4.738.733.856 0 1.655-.056 2.397-.113a4.916 4.916 0 0 0 2.056-.282Z"/></g><defs><clipPath id="a"><path fill="#fff" d="M0 0h137v132H0z"/></clipPath></defs></svg>