<svg xmlns="http://www.w3.org/2000/svg" width="134" height="126" fill="none"><mask id="a" width="134" height="126" x="0" y="0" maskUnits="userSpaceOnUse" style="mask-type:luminance"><path fill="#fff" d="M133.205.364H0V126h133.205V.364Z"/></mask><g mask="url(#a)"><path fill="#00005B" d="M23.588.364h86.029a24.258 24.258 0 0 1 9.03 1.731 23.634 23.634 0 0 1 7.655 4.946 22.757 22.757 0 0 1 5.113 7.406 22.14 22.14 0 0 1 1.79 8.735v80a22.14 22.14 0 0 1-1.79 8.735 22.75 22.75 0 0 1-5.113 7.406 23.63 23.63 0 0 1-7.655 4.946 24.25 24.25 0 0 1-9.03 1.731H23.588a24.25 24.25 0 0 1-9.03-1.731 23.631 23.631 0 0 1-7.656-4.946 22.755 22.755 0 0 1-5.112-7.406A22.152 22.152 0 0 1 0 103.182v-80a22.152 22.152 0 0 1 1.79-8.735A22.762 22.762 0 0 1 6.902 7.04a23.635 23.635 0 0 1 7.656-4.946 24.259 24.259 0 0 1 9.03-1.731Z"/><path fill="#99F" d="M53.505 75.53H32.858L28.64 88.203a.937.937 0 0 1-.377.573.995.995 0 0 1-.678.178H17.151c-.61 0-.777-.322-.61-.966l17.871-49.556c.166-.537.333-1.02.555-1.665.223-1.15.335-2.319.333-3.49a.524.524 0 0 1 .102-.38.557.557 0 0 1 .342-.21h14.375c.389 0 .666.16.721.43L71.1 88.147c.166.59 0 .86-.555.86h-11.6a.86.86 0 0 1-.555-.14.812.812 0 0 1-.333-.451L53.505 75.53ZM36.077 64.847h14.098a74.484 74.484 0 0 0-1.277-3.865c-.5-1.396-.999-3.007-1.498-4.618-.5-1.61-1.055-3.275-1.61-4.94a113.575 113.575 0 0 1-1.499-4.778c-.444-1.557-.832-2.9-1.22-4.188h-.112a64.227 64.227 0 0 1-1.887 6.926c-.832 2.578-1.665 5.262-2.553 7.947-.721 2.738-1.61 5.261-2.442 7.516ZM104.011 70.592H86.417c.21 1.694.797 3.325 1.72 4.778a8.746 8.746 0 0 0 4.052 3.222 17.767 17.767 0 0 0 7.104 1.342 34.465 34.465 0 0 0 5.773-.59 21.406 21.406 0 0 0 4.939-1.235c.278-.215.444-.108.444.43v8.214a2.569 2.569 0 0 1-.111.644c-.1.15-.232.279-.388.376a24.333 24.333 0 0 1-5.55 1.61 38.726 38.726 0 0 1-7.882.645c-4.218 0-7.77-.644-10.656-1.88a18.642 18.642 0 0 1-6.993-5.1 19.497 19.497 0 0 1-3.83-7.033 26.95 26.95 0 0 1 .222-16.376 21.708 21.708 0 0 1 4.163-7.356 20.033 20.033 0 0 1 6.715-5.1c2.609-1.235 5.717-1.665 9.27-1.665 2.959-.066 5.897.502 8.602 1.665a15.242 15.242 0 0 1 5.828 4.295 19.447 19.447 0 0 1 3.33 6.12 20.458 20.458 0 0 1 1.054 6.551c0 1.289-.055 2.416-.111 3.436-.055 1.02-.166 1.772-.222 2.255a.788.788 0 0 1-.257.486.842.842 0 0 1-.52.212c-.333 0-.943.054-1.831.108a27.194 27.194 0 0 1-3.219.16c-1.277 0-2.609-.214-4.052-.214Zm-17.594-7.839h11.71c1.444 0 2.498 0 3.165-.054a2.771 2.771 0 0 0 1.276-.43v-.536a5.982 5.982 0 0 0-.333-1.987 7.127 7.127 0 0 0-2.754-3.636 7.523 7.523 0 0 0-4.461-1.303 8.026 8.026 0 0 0-4.315.984 7.676 7.676 0 0 0-3.067 3.096 10.868 10.868 0 0 0-1.221 3.866Z"/></g></svg>