<svg xmlns="http://www.w3.org/2000/svg" width="240" height="234" fill="none"><g clip-path="url(#a)"><path fill="#00005B" d="M42.5 0h155a42.455 42.455 0 0 1 30.064 12.436A42.47 42.47 0 0 1 240 42.5v149a42.459 42.459 0 0 1-42.5 42.5h-155A42.465 42.465 0 0 1 0 191.51V42.5A42.46 42.46 0 0 1 42.5 0Z"/><path fill="#99F" d="M94.26 140H57.1l-7.58 23.59a1.729 1.729 0 0 1-1.87 1.4H28.83c-1.12 0-1.4-.56-1.12-1.78l32.2-92.48c.275-1.11.608-2.205 1-3.28.516-2.086.797-4.222.84-6.37a1 1 0 0 1 .87-1.08h25.93c.66 0 1.22.28 1.31.84l36.32 102.59c.28 1.12 0 1.59-1 1.59h-20.91a1.498 1.498 0 0 1-1.59-1.12L94.26 140ZM62.9 120.09h25.37c-.56-2.06-1.4-4.59-2.34-7.21s-1.78-5.62-2.71-8.61c-.93-2.99-1.87-6.08-2.9-9.17-1.03-3.09-1.87-6-2.71-8.89-.84-2.89-1.5-5.43-2.25-7.77h-.19a131.249 131.249 0 0 1-3.37 12.92c-1.5 4.77-3 9.83-4.59 14.79a137.325 137.325 0 0 1-4.31 13.95v-.01ZM202.84 86.21v61.31c0 2.71 0 5.05.09 7.21s.19 3.93.28 5.52c.09 1.59.28 2.53.37 3.56.09 1.03-.28 1.31-1.12 1.31h-17.12a1.756 1.756 0 0 1-1.87-1.12l-.56-2.53a7.673 7.673 0 0 1-.19-2.06 28.49 28.49 0 0 1-11.33 6.18 40.445 40.445 0 0 1-11.14 1.5 32.526 32.526 0 0 1-10.86-1.68 21.299 21.299 0 0 1-8.52-5.52 24.83 24.83 0 0 1-5.62-9.73 45.456 45.456 0 0 1-2-14.23V86.3a1.167 1.167 0 0 1 .223-.866 1.155 1.155 0 0 1 .777-.444h19.45A1.15 1.15 0 0 1 155 86v47.27c0 4.4 1 7.86 2.9 10.39 1.9 2.53 5.8 3.84 10.3 3.84a19.127 19.127 0 0 0 6.8-1.2 23.456 23.456 0 0 0 6.27-3.28V86.21c0-.66.47-1.12 1.4-1.12h19.1a.998.998 0 0 1 1.12.84.346.346 0 0 0-.05.28Z"/></g><defs><clipPath id="a"><path fill="#fff" d="M0 0h240v234.01H0z"/></clipPath></defs></svg>