<svg xmlns="http://www.w3.org/2000/svg" width="135" height="132" fill="none"><g clip-path="url(#a)"><path fill="#001E36" d="M23.906 0h87.188c3.14-.003 6.25.615 9.152 1.819a23.883 23.883 0 0 1 7.759 5.196A23.998 23.998 0 0 1 135 23.975v84.051a23.998 23.998 0 0 1-6.995 16.959 23.898 23.898 0 0 1-7.759 5.196 23.822 23.822 0 0 1-9.152 1.819H23.906a23.82 23.82 0 0 1-9.152-1.819 23.895 23.895 0 0 1-7.759-5.196 23.96 23.96 0 0 1-5.181-7.781A24.011 24.011 0 0 1 0 108.026V23.974a24.01 24.01 0 0 1 1.814-9.178 23.956 23.956 0 0 1 5.181-7.78 23.88 23.88 0 0 1 7.76-5.197A23.825 23.825 0 0 1 23.905 0Z"/><path fill="#31A8FF" d="M70.876 93.303H35.213c-.619 0-.9-.339-.9-1.016V34.636a.7.7 0 0 1 .619-.79h11.25a.525.525 0 0 1 .549.25c.036.062.06.13.07.201v47.554h25.987c.563 0 .731.282.619.79l-1.632 9.815a.985.985 0 0 1-.337.677.949.949 0 0 1-.563.17ZM79.876 48.174h9.843a1.263 1.263 0 0 1 1.181.903c.233.399.386.84.45 1.297.113.564.226 1.185.282 1.75.056.563.112 1.296.112 2.03a20.945 20.945 0 0 1 6.019-4.851 16.754 16.754 0 0 1 8.381-2.031.695.695 0 0 1 .788.62v11.226c0 .451-.282.62-.9.62A22.869 22.869 0 0 0 95.4 61.657a9.431 9.431 0 0 0-3.037 2.088v28.769c0 .564-.225.79-.731.79H80.663a.775.775 0 0 1-.9-.677V61.149c0-1.354 0-2.764-.056-4.231s-.056-2.933-.113-4.4a41.559 41.559 0 0 0-.337-3.723.52.52 0 0 1 .393-.62c.057-.057.113-.057.225 0Z"/></g><defs><clipPath id="a"><path fill="#fff" d="M0 0h135v132H0z"/></clipPath></defs></svg>