<svg xmlns="http://www.w3.org/2000/svg" width="134" height="131" fill="none"><g clip-path="url(#a)"><path fill="#001E36" d="M23.73 0h86.541a23.65 23.65 0 0 1 9.084 1.805 23.704 23.704 0 0 1 7.701 5.157A23.786 23.786 0 0 1 134 23.792v83.415a23.787 23.787 0 0 1-6.944 16.831 23.708 23.708 0 0 1-7.701 5.157 23.642 23.642 0 0 1-9.084 1.805H23.729a23.645 23.645 0 0 1-9.084-1.805 23.708 23.708 0 0 1-7.701-5.157 23.775 23.775 0 0 1-5.144-7.722 23.825 23.825 0 0 1-1.8-9.109V23.793a23.826 23.826 0 0 1 1.8-9.109 23.775 23.775 0 0 1 5.144-7.722 23.703 23.703 0 0 1 7.7-5.157A23.652 23.652 0 0 1 23.73 0Z"/><path fill="#31A8FF" d="M47.012 92.596h-31.88c-.56 0-.782-.336-.782-1.008V34.374c0-.56.223-.784.725-.784h9.883c.39 0 .558.224.558.616V81.23h23.227c.502 0 .67.28.558.784l-1.451 9.741a.96.96 0 0 1-.335.672.897.897 0 0 1-.503.168ZM54.997 47.81h8.821c.503 0 .838.28 1.061.895.189.41.32.843.391 1.288.112.56.168 1.175.223 1.735.056.56.056 1.288.056 2.016a19.18 19.18 0 0 1 5.36-4.815 14.047 14.047 0 0 1 7.482-2.015c.502 0 .726.28.726.783v10.917c0 .448-.28.616-.782.616a17.972 17.972 0 0 0-9.492 1.903 9.823 9.823 0 0 0-2.735 2.072v28.551c0 .56-.224.784-.67.784h-9.715c-.559 0-.782-.28-.782-.896V60.629c0-1.343 0-2.743-.056-4.198-.056-1.456-.056-2.911-.112-4.367a41.268 41.268 0 0 0-.335-3.695.836.836 0 0 1 .112-.504.63.63 0 0 1 .447-.056ZM118.702 39.524a14.147 14.147 0 0 0-3.741-.952 48.586 48.586 0 0 0-5.695-.336c-5.472 0-10.273 1.176-14.238 3.471a24.073 24.073 0 0 0-9.268 9.797c-2.178 4.143-3.238 9.07-3.238 14.556a36.95 36.95 0 0 0 1.228 9.853 25.98 25.98 0 0 0 3.573 7.67 22.415 22.415 0 0 0 5.472 5.542 21.75 21.75 0 0 0 7.09 3.359 30.795 30.795 0 0 0 8.152 1.12c1.924.01 3.847-.12 5.751-.392 1.55-.174 3.071-.55 4.523-1.12a1.51 1.51 0 0 0 .837-1.512V82.24a.97.97 0 0 0-.279-.84.667.667 0 0 0-.893.056c-1.264.461-2.575.78-3.909.952a46.996 46.996 0 0 1-4.857.224 16.369 16.369 0 0 1-4.355-.616c-1.49-.398-2.918-1-4.243-1.791a12.202 12.202 0 0 1-3.518-3.248 17.045 17.045 0 0 1-2.456-4.814 21.578 21.578 0 0 1-.894-6.55 20.62 20.62 0 0 1 1.843-8.957 14.044 14.044 0 0 1 5.248-5.879 15.448 15.448 0 0 1 8.152-2.127 27.694 27.694 0 0 1 5.248.448c1.404.227 2.761.68 4.02 1.344a.824.824 0 0 0 .726 0 .97.97 0 0 0 .335-.84v-8.733a1.376 1.376 0 0 0-.614-1.344Z"/></g><defs><clipPath id="a"><path fill="#fff" d="M0 0h134v131H0z"/></clipPath></defs></svg>