<svg xmlns="http://www.w3.org/2000/svg" width="323" height="350" fill="none"><g clip-path="url(#a)"><path fill="#69402E" d="M192.704 30.682C166.931-3.671 46.744 74.612 83.494 161.38c8.175 19.298 15.569 12.336 32.271 22.256 9.405 5.583 21.81-13.991 61.837 16.948 26.317 20.334-6.879 18.68 31.576 44.654 83.942 56.704 66.115-188.924-16.493-214.556h.019Z"/><path fill="#6F9BC3" d="M253.951 322.247H86.581c-.705-6.382 24.935-142.149 55.053-185.795 3.421-4.955 32.691-8.559 43.429 3.767 56.911 65.244 70.269 180.459 68.897 182.028h-.009Z"/><path fill="#6F9BC3" d="M28.727 300.201c1.039 22.37 29.06 41.192 45.325 42.19 28.041 1.693 112.145-22.75 112.145-22.75l-32.691-62.876S96.271 276.158 94.823 276.7v-.019c.505-1.665 14.606-54.574 20.914-72.102.334-.97.724-1.959 1.096-2.996 1.81-4.86 4.297-11.27 7.051-18.194l.028-.048c1.525-3.833 3.135-7.846 4.716-11.793v-.019c6.908-17.139 13.645-33.46 13.645-33.46-9.633 1.579-19.152 6.639-34.768 22.998-15.588 16.349-80.474 102.241-78.768 139.144l-.01-.01Z"/><path fill="#2B454E" d="M164.397 306.031c-2.335-4.451-4.707-8.883-7.042-13.324a1308.912 1308.912 0 0 0-6.965-13.021c-2.42-4.479-4.964-8.95-6.926-13.648-.039-.086.085-.162.142-.086 2.945 3.871 5.365 8.142 7.785 12.355a774.746 774.746 0 0 1 7.365 13.173c2.372 4.318 4.65 8.683 6.908 13.068 2.315 4.508 4.65 9.178 6.317 13.971.067.19-.2.38-.324.19-2.706-4.004-5.012-8.388-7.26-12.668v-.01Z"/><path fill="#1C1C1C" d="m77.31 285.982 17.475-9.254.029-.019v-.019c.505-1.664 14.606-54.573 20.914-72.102.333-.97.724-1.959 1.095-2.996 1.811-4.86 4.297-11.27 7.051-18.194L77.311 285.982Z"/><path fill="#1C1C1C" d="M62.847 293.658c4.85-3.615 10.08-6.858 15.35-9.835a93.256 93.256 0 0 1 8.08-4.089c2.934-1.313 6.04-2.254 8.965-3.576.22-.105.39.237.162.342-2.725 1.227-5.316 2.948-7.956 4.375a342.523 342.523 0 0 1-8.26 4.375c-5.45 2.796-10.796 5.764-16.208 8.617-.133.066-.266-.133-.143-.219l.01.01Z"/><path fill="#fff" d="M75.567 280.105c4.383.057 30.871-7 34.73-3.377 23.505 22.113 30.937 17.662 35.939 20.544 38.732 22.246 90.45 48.372 108.915 48.534 27.993.228 39.151-23.226 34.492-45.386-9.205-43.807-68.383-129.215-95.166-151.917-14.197-12.013-13.073 6.106-7.204 25.812 3.45 11.556 9.471 28.732 15.617 45.586 5.44 15.017 19.866 53.384 20.114 54.288v.019c.019.047.047.076.047.104.019.105-.086.124-.305.058-1.229-.229-34.348-15.808-67.658-24.367-11.739-3.015-36.178-7.314-44.944-3.405-5.212 2.32-5.297 5.421-5.297 5.421s-4.174-.38-8.585 3.243c-2.925 2.406-3.83 5.802-3.83 5.802s-4.574.637-6.946 3.281c-2.84 3.158-3.088 6.496-3.088 6.496-6.174 1.645-6.822 9.264-6.822 9.264h-.01Z"/><path fill="#1A2E35" d="M114.689 251.097c3.535.047 6.974.561 10.443 1.169.238.048.228.409-.019.381-3.412-.371-6.861-.457-10.281-.571-3.402-.114-6.86-.19-10.262-.114-.019 0-.028-.038 0-.038 3.392-.561 6.67-.875 10.119-.827ZM92.517 260.864c6.06-1.664 10.9-2.587 18.513-1.626.248.028.229.39-.019.38-7.232-.447-11.957.285-18.484 1.379-.076.019-.076-.104-.01-.123v-.01ZM82.456 270.641c6.078-2.491 10.757-3.281 17.512-3.281.238 0 .314.352.067.371-6.47.618-11.205 1.541-17.484 3.177-.153.038-.238-.21-.096-.276v.009ZM156.698 250.393c2.906.38 5.812 1.236 8.661 1.93 3.03.742 6.06 1.57 9.023 2.549 5.945 1.959 11.719 4.309 17.408 6.896.219.104.104.437-.134.352-5.793-2.026-11.653-3.928-17.512-5.774-2.887-.903-5.746-1.864-8.623-2.805-2.944-.961-6.012-1.693-8.909-2.787-.2-.076-.133-.399.086-.371v.01Z"/><path fill="#6F9BC3" d="M179.861 256.66c-6.127-2.073-8.9-2.083-8.9-2.083l-34.844 58.74s95.976 34.495 115.68 36.512c19.704 2.016 42.124-13.477 42.505-38.167.533-34.715-56.168-118.068-84.695-150.301-13.072-14.77-28.317-25.498-32.205-23.082-4.592 2.862 3.745 21.437 8.147 35.294 8.108 25.585 37.188 100.806 37.188 100.806s-35.568-15.246-42.867-17.709l-.009-.01Z"/><path fill="#1C1C1C" d="M171.276 254.53c5.402.314 28.784 8.445 40.246 13.353 11.424 4.898 22.41 10.7 32.729 17.652 5.831 3.928 11.367 8.208 16.836 12.631.19.152-.019.456-.219.314-10.081-7.2-20.848-13.62-31.748-19.488-10.842-5.849-21.885-11.394-33.376-15.864-6.546-2.549-17.799-6.363-24.192-8.037-1.81-.476-.457-.561-.286-.552l.01-.009ZM194.286 203.171c1.458 2.359 2.944 4.699 4.192 7.171.057.114.115.238.172.352a590.893 590.893 0 0 1-5.307-16.977c-.105-.352.476-.542.609-.199 8.252 20.847 15.903 41.952 23.325 63.114 2.077 5.916 3.897 11.898 5.784 17.871.066.209-.277.314-.363.114-2.267-5.127-4.544-10.215-6.621-15.427-2.078-5.212-4.002-10.481-5.956-15.731-3.411-9.197-6.65-18.432-9.785-27.714-.981-1.627-1.972-3.253-2.896-4.899-1.344-2.415-2.459-4.945-3.583-7.466-.124-.275.257-.447.41-.199l.019-.01ZM159.461 300.524c2.554-4.327 5.069-8.674 7.613-13.011 2.496-4.251 4.955-8.512 7.394-12.782 2.525-4.423 4.983-8.931 7.946-13.078.057-.076.191-.009.153.077-1.735 4.536-4.088 8.845-6.394 13.115a806.763 806.763 0 0 1-7.317 13.201c-2.42 4.289-4.926 8.531-7.47 12.754-2.611 4.337-5.355 8.788-8.547 12.735-.133.152-.429.038-.333-.171 1.981-4.403 4.487-8.683 6.946-12.84h.009Z"/><path fill="#1C1C1C" d="M134.726 313.44c2.887-5.687 7.385-11.28 10.719-16.691.124-.21.439 0 .315.218-3.021 5.079-5.793 10.548-8.69 15.712 13.187 5.431 27.174 10.272 40.618 15.027 13.797 4.879 27.679 9.511 41.762 13.553 7.87 2.264 15.749 4.718 23.667 6.791.496.124.362.533-.143.438-14.244-2.673-28.222-6.782-42.009-11.147-14.063-4.451-27.936-9.435-41.752-14.58-7.774-2.901-24.715-8.855-24.477-9.321h-.01Z"/><path fill="#fff" d="M157.584 250.431c18.122 4.631 38.979 12.259 48.326 15.911.248.086.467.172.696.257 8.232 3.234 13.329 5.621 14.549 5.83.105-.047.181-.114.257-.161v-.019c.858-.619 1.706-1.085 2.544-1.398 2.325-.828 24.621-3.615 24.058-10.51-.543-6.819-9.632-6.401-10.966-6.306 1.448-.314 13.549-3.148 9.604-9.178-2.782-4.28-14.768-3.652-15.979-3.604 1.22-.4 12.339-4.023 8.519-10.177-2.735-4.403-16.122-3.833-17.665-3.576 1.248-.476 11.166-2.13 6.536-7.438-3.211-3.699-28.413.067-39.608 5.64-16.655 8.303-30.881 24.738-30.881 24.738l.01-.009Z"/><path fill="#1A2E35" d="M205.91 266.342c.248.086.467.172.696.257 3.868-2.996 18.503-10.738 30.004-12.202.714-.095.762-.495 0-.466-14.197.646-26.965 8.987-30.7 12.421v-.01ZM230.13 241.7c-15.873 3.148-23.048 6.638-36.692 15.293-.191.124-.41-.161-.219-.304 12.72-9.501 20.637-14.209 36.778-15.398.734-.057.867.257.133.399v.01ZM221.041 227.814c-15.226 4.042-23.249 7.542-35.511 17.452-.286.238-.648-.123-.381-.38 11.557-11.185 21.542-15.627 35.749-17.491.972-.123 1.105.172.143.419Z"/><path fill="#fff" stroke="#000" stroke-miterlimit="10" stroke-width=".36" d="M144.807 166.868c9.014 3.234 26.536-9.102 34.12-19.84.514-.741.248-9.149.41-19.392.124-6.211.409-13.135 1.124-19.421l-40.628 5.107s2.392 13.629 1.077 24.595c-.124.913-.305 1.76-.572 2.549-.028.114-.076.257-.104.418-1.363 4.813-4.145 22.846 4.573 25.984Z"/><path fill="#000" stroke="#000" stroke-miterlimit="10" stroke-width=".36" d="M140.215 140.884a7.034 7.034 0 0 0-.21.885c24.325-1.027 33.577-11.708 39.56-21.942.181-3.899.439-7.865.886-11.612l-40.627 5.097s2.401 13.639 1.067 24.605a13.232 13.232 0 0 1-.572 2.549c-.028.105-.047.266-.104.418Z"/><path fill="#fff" stroke="#000" stroke-miterlimit="10" stroke-width=".71" d="M175.497 57.065c.362 2.416.305 9.73 6.726 17.643 4.888 6.02 5.47 17.272 3.974 23.225-3.964 15.798-4.402 24.282-11.443 28.98-16.312 10.89-40.056 8.674-48.584-10.224-8.261-18.318 8.328-61.935 20.619-68.46 9.737-5.164 20.733-7.608 30.623-1.987 0 0-3.411.875-1.906 10.823h-.009Z"/><path fill="#000" d="M162.834 81.318c4.364 1.094 1.848 9.73-2.191 8.712-3.983-.999-1.468-9.635 2.191-8.712ZM141.663 74.898c-4.212-1.579-7.07 6.953-3.164 8.408 3.84 1.445 6.689-7.086 3.164-8.408Z"/><path fill="#fff" d="M183.653 97.21s11.271-11.45 16.626-7.228c5.355 4.223-4.65 21.885-12.005 23.302-7.356 1.408-8.795-5.364-8.795-5.364"/><path fill="#000" d="M183.653 97.21c3.744-3.09 7.756-6.514 12.529-7.703 6.736-1.094 5.707 6.239 3.84 10.329-2.172 4.926-6.479 11.86-12.044 13.144-3.706.818-7.489-1.37-8.499-5.06 1.096 5.849 7.642 7.542 12.158 4.185 4.126-3.015 7.003-7.39 9.014-12.013 2.134-4.698 2.82-12.364-4.593-11.251-5.04 1.16-8.975 4.727-12.405 8.37Z"/><path fill="#000" d="M197.278 94.976c.114 0 .114.17 0 .19-5.183 1.15-8.499 5.212-11.072 9.577 1.744-1.55 3.878-2.206 5.993-.085.115.114-.038.285-.171.237-1.915-.751-3.411-.656-5.021.714-1.144.97-2.03 2.282-2.926 3.471-.304.39-1.048.029-.8-.437.019-.038.038-.067.057-.105.924-6.201 7.184-14.038 13.94-13.553v-.01ZM171.99 77.97c.677-6.81-4.754-11.907-11.51-10.918l-.323.342a70.332 70.332 0 0 0 2.772 2.844c2.001 2.045 5.098 4.888 7.222 6.79l1.515 1.284.324-.342ZM150.095 65.844c-4.478-3.624-10.729-2.511-13.72 2.387l.066.37a85.993 85.993 0 0 0 3.459-.456c1.715-.256 5.164-.856 6.86-1.198a98.666 98.666 0 0 0 3.402-.742l-.067-.37v.009Z"/></g><defs><clipPath id="a"><path fill="#fff" d="M323 0H0v350h323z"/></clipPath></defs></svg>