<svg xmlns="http://www.w3.org/2000/svg" width="26" height="44" fill="none"><path stroke="#fff" stroke-miterlimit="10" d="M3.812 25.638 1.148 20.44S-1.221 1.49 13.018.675C27.256-.14 24.728 20.78 24.728 20.78l-2.736 5.28"/><path stroke="#fff" stroke-linecap="round" stroke-miterlimit="10" d="M12.22 30.346c-.892-.253-1.422-1.157-1.422-2.232 0-1.27.927-2.304 2.072-2.304s2.07 1.03 2.07 2.304c0 1.058-.492 1.959-1.362 2.232m-.004 0v12.387h1.21l7.306-16.96s-4.65-.274-6.958-8.026c0 0-1.893 1.408-4.614 0 0 0-.942 6.567-6.706 8.012l7.23 16.974h1.181V30.346"/><path stroke="#fff" stroke-miterlimit="10" d="M14.659 7.493s-.02 3.677-8.477 2.168c0 0-1.116 7.789 6.276 8.594.242.027.498.02.767-.007 1.612-.17 7.201-1.763 6.343-8.46 0 0-4.696.023-4.91-2.295Z"/></svg>