<svg width="323" height="350" viewBox="0 0 323 350" fill="none" xmlns="http://www.w3.org/2000/svg">
<g clip-path="url(#clip0_165_476)">
<path d="M192.704 30.682C166.931 -3.67123 46.7445 74.6127 83.494 161.38C91.6691 180.678 99.0628 173.716 115.765 183.636C125.17 189.219 137.575 169.645 177.602 200.584C203.919 220.918 170.723 219.264 209.178 245.238C293.12 301.942 275.293 56.3138 192.685 30.682H192.695H192.704Z" fill="#69402E"/>
<path d="M253.951 322.247H86.5813C85.8762 315.865 111.516 180.098 141.634 136.452C145.055 131.497 174.325 127.893 185.063 140.219C241.974 205.463 255.332 320.678 253.96 322.247H253.951Z" fill="#6F9BC3"/>
<path d="M28.7271 300.201C29.7657 322.571 57.7876 341.393 74.0519 342.391C102.093 344.084 186.197 319.641 186.197 319.641L153.506 256.765C153.506 256.765 96.2713 276.158 94.823 276.7V276.681C95.328 275.016 109.429 222.107 115.737 204.579C116.071 203.609 116.461 202.62 116.833 201.583C118.643 196.723 121.13 190.313 123.884 183.389L123.912 183.341C125.437 179.508 127.047 175.495 128.628 171.548V171.529C135.536 154.39 142.273 138.069 142.273 138.069C132.64 139.648 123.121 144.708 107.505 161.067C91.917 177.416 27.0311 263.308 28.7367 300.211L28.7271 300.201Z" fill="#6F9BC3"/>
<path d="M164.397 306.031C162.062 301.58 159.69 297.148 157.355 292.707C155.059 288.351 152.734 284.014 150.39 279.686C147.97 275.207 145.426 270.736 143.464 266.038C143.425 265.952 143.549 265.876 143.606 265.952C146.551 269.823 148.971 274.094 151.391 278.307C153.897 282.673 156.336 287.067 158.756 291.48C161.128 295.798 163.406 300.163 165.664 304.548C167.979 309.056 170.314 313.726 171.981 318.519C172.048 318.709 171.781 318.899 171.657 318.709C168.951 314.705 166.645 310.321 164.397 306.041V306.031Z" fill="#2B454E"/>
<path d="M77.3106 285.982L94.785 276.728L94.8135 276.709V276.69C95.3185 275.026 109.42 222.117 115.728 204.588C116.061 203.618 116.452 202.629 116.823 201.592C118.634 196.732 121.12 190.322 123.874 183.398L77.3106 285.982Z" fill="#1C1C1C"/>
<path d="M62.8468 293.658C67.6966 290.043 72.9275 286.8 78.1965 283.823C80.8262 282.33 83.5227 280.961 86.2763 279.734C89.2109 278.421 92.317 277.48 95.2421 276.158C95.4613 276.053 95.6328 276.395 95.4041 276.5C92.6791 277.727 90.0875 279.448 87.4482 280.875C84.7137 282.368 81.9601 283.833 79.1874 285.25C73.7374 288.046 68.3922 291.014 62.9802 293.867C62.8469 293.933 62.7135 293.734 62.8373 293.648L62.8468 293.658Z" fill="#1C1C1C"/>
<path d="M75.5669 280.105C79.9498 280.162 106.438 273.105 110.297 276.728C133.802 298.841 141.234 294.39 146.236 297.272C184.968 319.518 236.686 345.644 255.151 345.806C283.144 346.034 294.302 322.58 289.643 300.42C280.438 256.613 221.26 171.205 194.477 148.503C180.28 136.49 181.404 154.609 187.273 174.315C190.723 185.871 196.744 203.047 202.89 219.901C208.33 234.918 222.756 273.285 223.004 274.189V274.208C223.023 274.255 223.051 274.284 223.051 274.312C223.07 274.417 222.965 274.436 222.746 274.37C221.517 274.141 188.398 258.562 155.088 250.003C143.349 246.988 118.91 242.689 110.144 246.598C104.932 248.918 104.847 252.019 104.847 252.019C104.847 252.019 100.673 251.639 96.2618 255.262C93.3367 257.668 92.4315 261.064 92.4315 261.064C92.4315 261.064 87.8581 261.701 85.4856 264.345C82.6462 267.503 82.3985 270.841 82.3985 270.841C76.2244 272.486 75.5765 280.105 75.5765 280.105H75.5669Z" fill="white"/>
<path d="M114.689 251.097C118.224 251.144 121.663 251.658 125.132 252.266C125.37 252.314 125.36 252.675 125.113 252.647C121.701 252.276 118.252 252.19 114.832 252.076C111.43 251.962 107.972 251.886 104.57 251.962C104.551 251.962 104.542 251.924 104.57 251.924C107.962 251.363 111.24 251.049 114.689 251.097Z" fill="#1A2E35"/>
<path d="M92.5173 260.864C98.5771 259.2 103.417 258.277 111.03 259.238C111.278 259.266 111.259 259.628 111.011 259.618C103.779 259.171 99.0535 259.903 92.5268 260.997C92.4506 261.016 92.4506 260.893 92.5173 260.874V260.864Z" fill="#1A2E35"/>
<path d="M82.4555 270.641C88.5344 268.15 93.2127 267.36 99.968 267.36C100.206 267.36 100.282 267.712 100.035 267.731C93.5652 268.349 88.8298 269.272 82.5508 270.908C82.3984 270.946 82.3126 270.698 82.4555 270.632V270.641Z" fill="#1A2E35"/>
<path d="M156.698 250.393C159.604 250.773 162.51 251.629 165.359 252.323C168.389 253.065 171.419 253.893 174.382 254.872C180.327 256.831 186.101 259.181 191.79 261.768C192.009 261.872 191.894 262.205 191.656 262.12C185.863 260.094 180.003 258.192 174.144 256.346C171.257 255.443 168.398 254.482 165.521 253.541C162.577 252.58 159.509 251.848 156.612 250.754C156.412 250.678 156.479 250.355 156.698 250.383V250.393Z" fill="#1A2E35"/>
<path d="M179.861 256.66C173.734 254.587 170.961 254.577 170.961 254.577L136.117 313.317C136.117 313.317 232.093 347.812 251.797 349.829C271.501 351.845 293.921 336.352 294.302 311.662C294.835 276.947 238.134 193.594 209.607 161.361C196.535 146.591 181.29 135.863 177.402 138.279C172.81 141.141 181.147 159.716 185.549 173.573C193.657 199.158 222.737 274.379 222.737 274.379C222.737 274.379 187.169 259.133 179.87 256.67L179.861 256.66Z" fill="#6F9BC3"/>
<path d="M171.276 254.53C176.678 254.844 200.06 262.975 211.522 267.883C222.946 272.781 233.932 278.583 244.251 285.535C250.082 289.463 255.618 293.743 261.087 298.166C261.277 298.318 261.068 298.622 260.868 298.48C250.787 291.28 240.02 284.86 229.12 278.992C218.278 273.143 207.235 267.598 195.744 263.128C189.198 260.579 177.945 256.765 171.552 255.091C169.742 254.615 171.095 254.53 171.266 254.539L171.276 254.53Z" fill="#1C1C1C"/>
<path d="M194.286 203.171C195.744 205.53 197.23 207.87 198.478 210.342C198.535 210.456 198.593 210.58 198.65 210.694C196.792 205.054 195.029 199.405 193.343 193.717C193.238 193.365 193.819 193.175 193.952 193.518C202.204 214.365 209.855 235.47 217.277 256.632C219.354 262.548 221.174 268.53 223.061 274.503C223.127 274.712 222.784 274.817 222.698 274.617C220.431 269.49 218.154 264.402 216.077 259.19C213.999 253.978 212.075 248.709 210.121 243.459C206.71 234.262 203.471 225.027 200.336 215.745C199.355 214.118 198.364 212.492 197.44 210.846C196.096 208.431 194.981 205.901 193.857 203.38C193.733 203.105 194.114 202.933 194.267 203.181L194.286 203.171Z" fill="#1C1C1C"/>
<path d="M159.461 300.524C162.015 296.197 164.53 291.85 167.074 287.513C169.57 283.262 172.029 279.001 174.468 274.731C176.993 270.308 179.451 265.8 182.414 261.653C182.471 261.577 182.605 261.644 182.567 261.73C180.832 266.266 178.479 270.575 176.173 274.845C173.782 279.268 171.333 283.662 168.856 288.046C166.436 292.335 163.93 296.577 161.386 300.8C158.775 305.137 156.031 309.588 152.839 313.535C152.706 313.687 152.41 313.573 152.506 313.364C154.487 308.961 156.993 304.681 159.452 300.524H159.461Z" fill="#1C1C1C"/>
<path d="M134.726 313.44C137.613 307.753 142.111 302.16 145.445 296.749C145.569 296.539 145.884 296.749 145.76 296.967C142.739 302.046 139.967 307.515 137.07 312.679C150.257 318.11 164.244 322.951 177.688 327.706C191.485 332.585 205.367 337.217 219.45 341.259C227.32 343.523 235.199 345.977 243.117 348.05C243.613 348.174 243.479 348.583 242.974 348.488C228.73 345.815 214.752 341.706 200.965 337.341C186.902 332.89 173.029 327.906 159.213 322.761C151.439 319.86 134.498 313.906 134.736 313.44H134.726Z" fill="#1C1C1C"/>
<path d="M157.584 250.431C175.706 255.062 196.563 262.69 205.91 266.342C206.158 266.428 206.377 266.514 206.606 266.599C214.838 269.833 219.935 272.22 221.155 272.429C221.26 272.382 221.336 272.315 221.412 272.268V272.249C222.27 271.63 223.118 271.164 223.956 270.851C226.281 270.023 248.577 267.236 248.014 260.341C247.471 253.522 238.382 253.94 237.048 254.035C238.496 253.721 250.597 250.887 246.652 244.857C243.87 240.577 231.884 241.205 230.673 241.253C231.893 240.853 243.012 237.23 239.192 231.076C236.457 226.673 223.07 227.243 221.527 227.5C222.775 227.024 232.693 225.37 228.063 220.062C224.852 216.363 199.65 220.129 188.455 225.702C171.8 234.005 157.574 250.44 157.574 250.44L157.584 250.431Z" fill="white"/>
<path d="M205.91 266.342C206.158 266.428 206.377 266.514 206.606 266.599C210.474 263.603 225.109 255.861 236.61 254.397C237.324 254.302 237.372 253.902 236.61 253.931C222.413 254.577 209.645 262.918 205.91 266.352V266.342Z" fill="#1A2E35"/>
<path d="M230.13 241.7C214.257 244.848 207.082 248.338 193.438 256.993C193.247 257.117 193.028 256.832 193.219 256.689C205.939 247.188 213.856 242.48 229.997 241.291C230.731 241.234 230.864 241.548 230.13 241.69V241.7Z" fill="#1A2E35"/>
<path d="M221.041 227.814C205.815 231.856 197.792 235.356 185.53 245.266C185.244 245.504 184.882 245.143 185.149 244.886C196.706 233.701 206.691 229.259 220.898 227.395C221.87 227.272 222.003 227.567 221.041 227.814Z" fill="#1A2E35"/>
<path d="M144.807 166.868C153.821 170.102 171.343 157.766 178.927 147.028C179.441 146.287 179.175 137.879 179.337 127.636C179.461 121.425 179.746 114.501 180.461 108.215L139.833 113.322C139.833 113.322 142.225 126.951 140.91 137.917C140.786 138.83 140.605 139.677 140.338 140.466C140.31 140.58 140.262 140.723 140.234 140.884C138.871 145.697 136.089 163.73 144.807 166.868Z" fill="white" stroke="black" stroke-width="0.36" stroke-miterlimit="10"/>
<path d="M140.215 140.884C140.138 141.141 140.062 141.427 140.005 141.769C164.33 140.742 173.582 130.061 179.565 119.827C179.746 115.928 180.004 111.962 180.451 108.215L139.824 113.312C139.824 113.312 142.225 126.951 140.891 137.917C140.786 138.83 140.577 139.658 140.319 140.466C140.291 140.571 140.272 140.732 140.215 140.884Z" fill="black" stroke="black" stroke-width="0.36" stroke-miterlimit="10"/>
<path d="M175.497 57.0652C175.859 59.481 175.802 66.7948 182.223 74.7079C187.111 80.7283 187.693 91.9796 186.197 97.9334C182.233 113.731 181.795 122.215 174.754 126.913C158.442 137.803 134.698 135.587 126.17 116.689C117.909 98.3709 134.498 54.7541 146.789 48.2296C156.526 43.0652 167.522 40.6209 177.412 46.2418C177.412 46.2418 174.001 47.1168 175.506 57.0652H175.497Z" fill="white" stroke="black" stroke-width="0.71" stroke-miterlimit="10"/>
<path d="M162.834 81.3179C167.198 82.4116 164.682 91.0475 160.643 90.0298C156.66 89.0312 159.175 80.3953 162.834 81.3179Z" fill="black"/>
<path d="M141.663 74.8981C137.451 73.3193 134.593 81.8506 138.499 83.3057C142.339 84.7514 145.188 76.2201 141.663 74.8981Z" fill="black"/>
<path d="M183.653 97.2106C183.653 97.2106 194.924 85.7595 200.279 89.9823C205.634 94.2051 195.629 111.867 188.274 113.284C180.918 114.692 179.479 107.92 179.479 107.92" fill="white"/>
<path d="M183.653 97.2106C187.397 94.1196 191.409 90.6957 196.182 89.5068C202.918 88.4131 201.889 95.7459 200.022 99.8356C197.85 104.762 193.543 111.696 187.978 112.98C184.272 113.798 180.489 111.61 179.479 107.92C180.575 113.769 187.121 115.462 191.637 112.105C195.763 109.09 198.64 104.715 200.651 100.092C202.785 95.394 203.471 87.7283 196.058 88.841C191.018 90.0014 187.083 93.5679 183.653 97.2106Z" fill="black"/>
<path d="M197.278 94.9756C197.392 94.9756 197.392 95.1468 197.278 95.1658C192.095 96.3166 188.779 100.378 186.206 104.743C187.95 103.193 190.084 102.537 192.199 104.658C192.314 104.772 192.161 104.943 192.028 104.895C190.113 104.144 188.617 104.239 187.007 105.609C185.863 106.579 184.977 107.891 184.081 109.08C183.777 109.47 183.033 109.109 183.281 108.643C183.3 108.605 183.319 108.576 183.338 108.538C184.262 102.337 190.522 94.5 197.278 94.9851V94.9756Z" fill="black"/>
<path d="M171.99 77.9701C172.667 71.1603 167.236 66.0625 160.48 67.0516L160.157 67.394C160.823 68.1263 162.205 69.553 162.929 70.2377C164.93 72.2826 168.027 75.1263 170.151 77.0285L171.666 78.3125L171.99 77.9701Z" fill="black"/>
<path d="M150.095 65.8438C145.617 62.2202 139.366 63.3329 136.375 68.231L136.441 68.6019C137.594 68.4688 138.747 68.3261 139.9 68.1454C141.615 67.8886 145.064 67.2894 146.76 66.9471C147.903 66.7188 149.037 66.4715 150.162 66.2052L150.095 65.8343V65.8438Z" fill="black"/>
</g>
<defs>
<clipPath id="clip0_165_476">
<rect width="323" height="350" fill="white" transform="matrix(-1 0 0 1 323 0)"/>
</clipPath>
</defs>
</svg>
