<svg width="134" height="132" viewBox="0 0 134 132" fill="none" xmlns="http://www.w3.org/2000/svg">
<g clip-path="url(#clip0_233_106)">
<path d="M23.7292 -4.61939e-06H110.271C113.388 -0.00297276 116.475 0.615117 119.355 1.81889C122.235 3.02266 124.852 4.78849 127.056 7.0153C129.26 9.24212 131.008 11.8862 132.2 14.7963C133.391 17.7063 134.003 20.8252 134 23.9744V108.026C134.003 111.175 133.391 114.294 132.2 117.204C131.008 120.114 129.26 122.758 127.056 124.985C124.852 127.211 122.235 128.977 119.355 130.181C116.475 131.385 113.388 132.003 110.271 132H23.7292C20.6122 132.003 17.5252 131.385 14.6449 130.181C11.7647 128.977 9.14761 127.211 6.94357 124.985C4.73953 122.758 2.99176 120.114 1.8003 117.204C0.608841 114.294 -0.00292725 111.175 1.05306e-05 108.026V23.9744C-0.00292725 20.8252 0.608841 17.7063 1.8003 14.7963C2.99176 11.8862 4.73953 9.24212 6.94357 7.0153C9.14761 4.78849 11.7647 3.02266 14.6449 1.81889C17.5252 0.615117 20.6122 -0.00297276 23.7292 -4.61939e-06V-4.61939e-06Z" fill="#00005B"/>
<path d="M53.8233 78.9744H33.0533L28.81 92.2872C28.7626 92.5288 28.6274 92.7438 28.4312 92.8899C28.2349 93.036 27.9916 93.1027 27.7492 93.0769H17.2525C16.6383 93.0769 16.4708 92.7385 16.6383 92.0615L34.6167 39.9949C34.7842 39.4308 34.9517 38.9231 35.175 38.2461C35.3997 37.0372 35.5118 35.8096 35.51 34.5795C35.4933 34.4382 35.53 34.2958 35.6128 34.1807C35.6957 34.0656 35.8185 33.9864 35.9567 33.959H50.4175C50.8083 33.959 51.0875 34.1282 51.1433 34.4103L71.5225 92.2308C71.69 92.8513 71.5225 93.1333 70.9642 93.1333H59.295C59.0976 93.1525 58.8999 93.1009 58.7365 92.9874C58.5731 92.8739 58.4546 92.7059 58.4017 92.5128L53.8233 78.9744ZM36.2917 67.7487H50.4733C50.1383 66.5641 49.6917 65.1538 49.1892 63.6872C48.6867 62.2205 48.1842 60.5282 47.6817 58.8359C47.1792 57.1436 46.6208 55.3949 46.0625 53.6461C45.5042 51.8974 45.0017 50.2615 44.555 48.6256C44.1083 46.9897 43.7175 45.5795 43.3267 44.2256H43.215C42.7132 46.6842 42.0795 49.1135 41.3167 51.5026C40.4792 54.2103 39.6417 57.0308 38.7483 59.8513C38.0225 62.7282 37.1292 65.3795 36.2917 67.7487Z" fill="#9999FF"/>
<path d="M104.632 73.7846H86.9327C87.1439 75.5648 87.7344 77.2776 88.6636 78.8051C89.6502 80.3255 91.072 81.5062 92.7394 82.1897C94.9962 83.1649 97.4319 83.6455 99.886 83.6C101.836 83.5639 103.779 83.3563 105.693 82.9795C107.395 82.7543 109.064 82.3185 110.662 81.6821C110.941 81.4564 111.109 81.5692 111.109 82.1333V90.7641C111.099 90.9935 111.061 91.2208 110.997 91.441C110.896 91.5993 110.763 91.7339 110.606 91.8359C108.82 92.6282 106.945 93.1965 105.023 93.5282C102.411 94.0357 99.7534 94.2626 97.0944 94.2051C92.851 94.2051 89.2777 93.5282 86.3744 92.2308C83.6423 91.0327 81.2311 89.1959 79.3394 86.8718C77.5717 84.6986 76.2608 82.1842 75.4869 79.4821C73.8508 73.8543 73.9286 67.8594 75.7102 62.2769C76.6006 59.4525 78.0224 56.8284 79.8977 54.5487C81.7441 52.2945 84.048 50.467 86.6536 49.1897C89.2777 47.8923 92.4044 47.441 95.9777 47.441C98.9548 47.3712 101.91 47.9684 104.632 49.1897C106.919 50.1916 108.931 51.7404 110.494 53.7026C111.978 55.6292 113.113 57.8065 113.844 60.1333C114.554 62.3566 114.912 64.6793 114.905 67.0154C114.905 68.3692 114.849 69.5539 114.794 70.6256C114.738 71.6974 114.626 72.4872 114.57 72.9949C114.546 73.1903 114.454 73.3707 114.311 73.5048C114.168 73.6388 113.983 73.7179 113.789 73.7282C113.454 73.7282 112.839 73.7846 111.946 73.841C110.871 73.9644 109.79 74.0209 108.708 74.0103C107.424 74.0103 106.084 73.7846 104.632 73.7846ZM86.9327 65.5487H98.7136C100.165 65.5487 101.226 65.5487 101.896 65.4923C102.355 65.4537 102.797 65.2985 103.18 65.041V64.4769C103.182 63.7674 103.069 63.0622 102.845 62.3897C102.356 60.8462 101.384 59.5052 100.075 58.569C98.7654 57.6328 97.1902 57.1523 95.5869 57.2C94.0716 57.1142 92.5641 57.4733 91.2464 58.234C89.9287 58.9948 88.8571 60.1246 88.161 61.4872C87.5097 62.7539 87.0934 64.1305 86.9327 65.5487V65.5487Z" fill="#9999FF"/>
</g>
<defs>
<clipPath id="clip0_233_106">
<rect width="134" height="132" fill="white"/>
</clipPath>
</defs>
</svg>
