<svg width="135" height="132" viewBox="0 0 135 132" fill="none" xmlns="http://www.w3.org/2000/svg">
<g clip-path="url(#clip0_233_104)">
<path d="M23.9063 -8.43408e-06H111.094C114.234 -0.00297657 117.344 0.615113 120.246 1.81889C123.148 3.02266 125.784 4.78848 128.005 7.0153C130.225 9.24211 131.986 11.8862 133.186 14.7962C134.387 17.7063 135.003 20.8252 135 23.9743V108.026C135.003 111.175 134.387 114.294 133.186 117.204C131.986 120.114 130.225 122.758 128.005 124.985C125.784 127.211 123.148 128.977 120.246 130.181C117.344 131.385 114.234 132.003 111.094 132H23.9063C20.766 132.003 17.656 131.385 14.7542 130.181C11.8525 128.977 9.21588 127.211 6.99539 124.985C4.7749 122.758 3.01409 120.114 1.81374 117.204C0.613384 114.294 -0.0029491 111.175 1.06092e-05 108.026V23.9743C-0.0029491 20.8252 0.613384 17.7063 1.81374 14.7962C3.01409 11.8862 4.7749 9.24211 6.99539 7.0153C9.21588 4.78848 11.8525 3.02266 14.7542 1.81889C17.656 0.615113 20.766 -0.00297657 23.9063 -8.43408e-06V-8.43408e-06Z" fill="#000B1D"/>
<path d="M53.4375 108.308C61.204 108.308 67.5 101.994 67.5 94.2051V80.1026H53.4375C45.671 80.1026 39.375 86.4165 39.375 94.2051C39.375 101.994 45.671 108.308 53.4375 108.308Z" fill="#0ACF83"/>
<path d="M39.375 66C39.375 58.2114 45.671 51.8974 53.4375 51.8974H67.5V80.1026H53.4375C45.671 80.1026 39.375 73.7886 39.375 66Z" fill="#A259FF"/>
<path d="M39.375 37.7949C39.375 30.0062 45.671 23.6923 53.4375 23.6923H67.5V51.8974H53.4375C45.671 51.8974 39.375 45.5835 39.375 37.7949Z" fill="#F24E1E"/>
<path d="M67.5 23.6923H81.5625C89.329 23.6923 95.625 30.0062 95.625 37.7949C95.625 45.5835 89.329 51.8974 81.5625 51.8974H67.5V23.6923Z" fill="#FF7262"/>
<path d="M95.625 66C95.625 73.7886 89.329 80.1026 81.5625 80.1026C73.796 80.1026 67.5 73.7886 67.5 66C67.5 58.2114 73.796 51.8974 81.5625 51.8974C89.329 51.8974 95.625 58.2114 95.625 66Z" fill="#1ABCFE"/>
</g>
<defs>
<clipPath id="clip0_233_104">
<rect width="135" height="132" fill="white"/>
</clipPath>
</defs>
</svg>
