<svg width="138" height="132" viewBox="0 0 138 132" fill="none" xmlns="http://www.w3.org/2000/svg">
<g clip-path="url(#clip0_233_109)">
<path d="M24.4375 -1.98782e-05H113.563C116.773 -0.00298802 119.952 0.615101 122.918 1.81887C125.884 3.02265 128.579 4.78847 130.849 7.01529C133.119 9.2421 134.919 11.8862 136.146 14.7962C137.373 17.7063 138.003 20.8251 138 23.9743V108.026C138.003 111.175 137.373 114.294 136.146 117.204C134.919 120.114 133.119 122.758 130.849 124.985C128.579 127.211 125.884 128.977 122.918 130.181C119.952 131.385 116.773 132.003 113.563 132H24.4375C21.2275 132.003 18.0484 131.385 15.0821 130.181C12.1158 128.977 9.42068 127.211 7.15084 124.985C4.88101 122.758 3.08107 120.114 1.85404 117.204C0.627015 114.294 -0.00301463 111.175 1.08449e-05 108.026V23.9743C-0.00301463 20.8251 0.627015 17.7063 1.85404 14.7962C3.08107 11.8862 4.88101 9.2421 7.15084 7.01529C9.42068 4.78847 12.1158 3.02265 15.0821 1.81887C18.0484 0.615101 21.2275 -0.00298802 24.4375 -1.98782e-05V-1.98782e-05Z" fill="#330000"/>
<path d="M66.8726 79.2H45.4826L41.1126 92.4564C41.0638 92.698 40.9247 92.913 40.7225 93.0591C40.5204 93.2053 40.2698 93.272 40.0201 93.2461H29.2101C28.5776 93.2461 28.4051 92.9077 28.5776 92.2308L47.0926 39.9385C47.2651 39.3743 47.4376 38.7538 47.6676 38.0769C47.8991 36.8679 48.0146 35.6404 48.0126 34.4102C47.9954 34.269 48.0332 34.1265 48.1185 34.0114C48.2039 33.8964 48.3303 33.8172 48.4726 33.7897H63.3651C63.8251 33.7897 64.0551 33.959 64.1126 34.241L85.1001 92.3436C85.2726 92.9641 85.1001 93.2461 84.5251 93.2461H72.5076C72.3044 93.2653 72.1008 93.2137 71.9325 93.1002C71.7642 92.9867 71.6421 92.8187 71.5876 92.6256L66.8726 79.2ZM48.8176 67.7487H63.4226C63.0776 66.5641 62.6176 65.1538 62.1001 63.6872C61.5826 62.2205 61.0651 60.5282 60.5476 58.8359C60.0301 57.1436 59.4551 55.3949 58.8801 53.6461C58.3051 51.8974 57.7876 50.2615 57.3276 48.6256C56.8676 46.9897 56.4651 45.5795 56.0626 44.2256H55.9476C55.4309 46.6842 54.7782 49.1135 53.9926 51.5026C53.1301 54.2102 52.2676 57.0308 51.3476 59.8513C50.5426 62.7282 49.6801 65.3795 48.8176 67.7487V67.7487Z" fill="#FF9A00"/>
<path d="M97.6354 43.4359C96.6916 43.4562 95.7531 43.292 94.8745 42.9531C93.9959 42.6141 93.1948 42.1071 92.5179 41.4615C91.2005 40.0484 90.4989 38.1858 90.5629 36.2718C90.5289 35.3392 90.6957 34.4101 91.0524 33.5451C91.4091 32.68 91.9476 31.8984 92.6329 31.2513C94.015 29.9697 95.8487 29.2623 97.7504 29.2769C99.9929 29.2769 101.718 29.9538 102.983 31.2513C104.257 32.6191 104.937 34.4199 104.88 36.2718C104.915 37.2249 104.755 38.1752 104.41 39.0666C104.064 39.958 103.54 40.7723 102.868 41.4615C102.19 42.1386 101.373 42.6652 100.47 43.0058C99.5674 43.3464 98.6008 43.493 97.6354 43.4359V43.4359ZM91.1954 92.4V48.9641C91.1954 48.4 91.4254 48.1744 91.9429 48.1744H103.328C103.845 48.1744 104.075 48.4564 104.075 48.9641V92.4C104.075 93.0205 103.845 93.3026 103.328 93.3026H92.0579C91.9371 93.3123 91.8155 93.2952 91.7024 93.2525C91.5892 93.2097 91.4874 93.1424 91.4045 93.0556C91.3215 92.9689 91.2597 92.8648 91.2235 92.7513C91.1873 92.6378 91.1777 92.5177 91.1954 92.4V92.4Z" fill="#FF9A00"/>
</g>
<defs>
<clipPath id="clip0_233_109">
<rect width="138" height="132" fill="white"/>
</clipPath>
</defs>
</svg>
