<svg width="137" height="132" viewBox="0 0 137 132" fill="none" xmlns="http://www.w3.org/2000/svg">
<g clip-path="url(#clip0_233_108)">
<path d="M24.2604 -8.43408e-06H112.74C115.926 -0.00297657 119.082 0.615113 122.027 1.81889C124.972 3.02266 127.648 4.78848 129.901 7.0153C132.154 9.24211 133.941 11.8862 135.159 14.7962C136.378 17.7063 137.003 20.8252 137 23.9743V108.026C137.003 111.175 136.378 114.294 135.159 117.204C133.941 120.114 132.154 122.758 129.901 124.985C127.648 127.211 124.972 128.977 122.027 130.181C119.082 131.385 115.926 132.003 112.74 132H24.2604C21.0737 132.003 17.9176 131.385 14.9728 130.181C12.0281 128.977 9.35241 127.211 7.09902 124.985C4.84564 122.758 3.05874 120.114 1.84061 117.204C0.622471 114.294 -0.00299279 111.175 1.07663e-05 108.026V23.9743C-0.00299279 20.8252 0.622471 17.7063 1.84061 14.7962C3.05874 11.8862 4.84564 9.24211 7.09902 7.0153C9.35241 4.78848 12.0281 3.02266 14.9728 1.81889C17.9176 0.615113 21.0737 -0.00297657 24.2604 -8.43408e-06V-8.43408e-06Z" fill="#49021F"/>
<path d="M49.7765 34.5231V92.4C49.7765 93.0205 49.491 93.3026 48.9773 93.3026H37.789C37.2752 93.3026 37.0469 93.0205 37.0469 92.4V34.5231C37.0469 34.0154 37.3323 33.7897 37.846 33.7897H48.9773C49.0638 33.7763 49.1522 33.7803 49.2371 33.8017C49.322 33.8231 49.4016 33.8614 49.471 33.9142C49.5405 33.9669 49.5983 34.0331 49.641 34.1087C49.6837 34.1843 49.7104 34.2677 49.7194 34.3538C49.7409 34.3761 49.7573 34.4029 49.7671 34.4321C49.777 34.4614 49.7802 34.4925 49.7765 34.5231V34.5231Z" fill="#FF3366"/>
<path d="M82.6564 94.2051C78.425 94.2737 74.2317 93.4064 70.3834 91.6667C66.803 90.0121 63.8023 87.3413 61.7639 83.9949C59.6518 80.5538 58.6243 76.2667 58.6243 71.1333C58.5664 66.9587 59.6512 62.8463 61.7639 59.2308C63.9301 55.5562 67.0677 52.5336 70.8401 50.4872C74.8359 48.2872 79.6309 47.2154 85.2822 47.2154C85.6825 47.2109 86.0828 47.2297 86.4809 47.2718C86.9947 47.3282 87.5655 47.3282 88.2505 47.3846V29.559C88.2505 29.1641 88.4218 28.9385 88.8214 28.9385H100.409C100.537 28.9214 100.667 28.9525 100.773 29.0257C100.879 29.0988 100.953 29.2087 100.98 29.3333V83.1487C100.98 84.1641 101.037 85.2923 101.094 86.5333C101.151 87.7744 101.266 88.8462 101.323 89.8051C101.335 89.9956 101.286 90.1851 101.184 90.347C101.082 90.5089 100.93 90.635 100.752 90.7077C97.7618 91.9495 94.641 92.8577 91.4472 93.4154C88.5463 93.935 85.6045 94.1992 82.6564 94.2051ZM88.2505 82.9231V58.1026C87.7423 57.9813 87.2278 57.8872 86.7093 57.8205C86.0814 57.7641 85.4534 57.7077 84.8255 57.7077C82.588 57.6828 80.3766 58.1856 78.3751 59.1744C76.4245 60.1349 74.7543 61.5717 73.523 63.3487C72.2672 65.1539 71.6393 67.5795 71.6393 70.5128C71.5895 72.4927 71.9188 74.464 72.6097 76.3231C73.1618 77.8265 74.0383 79.1931 75.1784 80.3282C76.2789 81.3661 77.6075 82.1383 79.0601 82.5846C80.5892 83.0795 82.1891 83.3271 83.798 83.3179C84.6543 83.3179 85.4534 83.2615 86.1955 83.2051C86.8931 83.2583 87.594 83.1621 88.2505 82.9231V82.9231Z" fill="#FF3366"/>
</g>
<defs>
<clipPath id="clip0_233_108">
<rect width="137" height="132" fill="white"/>
</clipPath>
</defs>
</svg>
