<svg width="135" height="132" viewBox="0 0 135 132" fill="none" xmlns="http://www.w3.org/2000/svg">
<g clip-path="url(#clip0_233_103)">
<path d="M23.9063 -4.61939e-06H111.094C114.234 -0.00297276 117.344 0.615117 120.246 1.81889C123.148 3.02266 125.784 4.78849 128.005 7.0153C130.225 9.24212 131.986 11.8862 133.186 14.7963C134.387 17.7063 135.003 20.8252 135 23.9744V108.026C135.003 111.175 134.387 114.294 133.186 117.204C131.986 120.114 130.225 122.758 128.005 124.985C125.784 127.211 123.148 128.977 120.246 130.181C117.344 131.385 114.234 132.003 111.094 132H23.9063C20.766 132.003 17.656 131.385 14.7542 130.181C11.8525 128.977 9.21588 127.211 6.99539 124.985C4.7749 122.758 3.01409 120.114 1.81374 117.204C0.613384 114.294 -0.0029491 111.175 1.06092e-05 108.026V23.9744C-0.0029491 20.8252 0.613384 17.7063 1.81374 14.7963C3.01409 11.8862 4.7749 9.24212 6.99539 7.0153C9.21588 4.78849 11.8525 3.02266 14.7542 1.81889C17.656 0.615117 20.766 -0.00297276 23.9063 -4.61939e-06V-4.61939e-06Z" fill="#001E36"/>
<path d="M70.8755 93.3026H35.213C34.5942 93.3026 34.313 92.9641 34.313 92.2872V34.6359C34.3004 34.5431 34.3066 34.4487 34.3311 34.3583C34.3556 34.2679 34.398 34.1834 34.4557 34.1097C34.5134 34.036 34.5853 33.9748 34.667 33.9295C34.7488 33.8842 34.8388 33.8559 34.9317 33.8462H46.1817C46.2521 33.8333 46.3243 33.8349 46.394 33.8509C46.4638 33.8668 46.5296 33.8968 46.5874 33.939C46.6452 33.9812 46.6939 34.0347 46.7306 34.0963C46.7672 34.1579 46.791 34.2263 46.8005 34.2974V81.8513H72.788C73.3505 81.8513 73.5192 82.1333 73.4067 82.641L71.7755 92.4564C71.7667 92.586 71.7323 92.7126 71.6744 92.8288C71.6165 92.945 71.5361 93.0485 71.438 93.1333C71.273 93.2479 71.0761 93.3071 70.8755 93.3026V93.3026Z" fill="#31A8FF"/>
<path d="M79.8755 48.1744H89.7192C89.9858 48.1808 90.2436 48.2716 90.4557 48.4336C90.6678 48.5957 90.8235 48.8209 90.9005 49.0769C91.133 49.476 91.2859 49.9167 91.3505 50.3744C91.463 50.9385 91.5755 51.559 91.6317 52.1231C91.688 52.6872 91.7442 53.4205 91.7442 54.1539C93.4332 52.1765 95.4741 50.5314 97.763 49.3026C100.333 47.9056 103.222 47.2056 106.144 47.2718C106.237 47.2592 106.331 47.2654 106.421 47.29C106.511 47.3146 106.595 47.3571 106.669 47.4149C106.742 47.4728 106.803 47.5449 106.849 47.6269C106.894 47.7089 106.922 47.7992 106.932 47.8923V59.118C106.932 59.5692 106.65 59.7385 106.032 59.7385C102.386 59.5195 98.7413 60.1771 95.4005 61.6564C94.2611 62.1453 93.2289 62.8545 92.363 63.7436V92.5128C92.363 93.0769 92.138 93.3026 91.6317 93.3026H80.663C80.5592 93.3201 80.453 93.3163 80.3507 93.2914C80.2485 93.2665 80.1523 93.221 80.0682 93.1577C79.984 93.0944 79.9135 93.0146 79.8611 92.9231C79.8086 92.8317 79.7752 92.7304 79.763 92.6256V61.1487C79.763 59.7949 79.763 58.3846 79.7067 56.918C79.6505 55.4513 79.6505 53.9846 79.5942 52.518C79.538 51.2769 79.4255 50.0359 79.2567 48.7949C79.2418 48.7282 79.2401 48.6592 79.2519 48.5919C79.2636 48.5246 79.2885 48.4603 79.3251 48.4026C79.3616 48.3449 79.4092 48.2951 79.4651 48.2559C79.5209 48.2168 79.5839 48.1891 79.6505 48.1744C79.7067 48.118 79.763 48.118 79.8755 48.1744V48.1744Z" fill="#31A8FF"/>
</g>
<defs>
<clipPath id="clip0_233_103">
<rect width="135" height="132" fill="white"/>
</clipPath>
</defs>
</svg>
