<svg width="134" height="131" viewBox="0 0 134 131" fill="none" xmlns="http://www.w3.org/2000/svg">
<g clip-path="url(#clip0_233_111)">
<path d="M23.7292 -4.69999e-06H110.271C113.388 -0.00295035 116.475 0.610457 119.355 1.80511C122.235 2.99976 124.852 4.75221 127.056 6.96216C129.26 9.1721 131.008 11.7962 132.2 14.6842C133.391 17.5722 134.003 20.6674 134 23.7927V107.207C134.003 110.333 133.391 113.428 132.2 116.316C131.008 119.204 129.26 121.828 127.056 124.038C124.852 126.248 122.235 128 119.355 129.195C116.475 130.39 113.388 131.003 110.271 131H23.7292C20.6122 131.003 17.5252 130.39 14.6449 129.195C11.7647 128 9.14761 126.248 6.94357 124.038C4.73953 121.828 2.99176 119.204 1.8003 116.316C0.608841 113.428 -0.00292725 110.333 1.05306e-05 107.207V23.7927C-0.00292725 20.6674 0.608841 17.5722 1.8003 14.6842C2.99176 11.7962 4.73953 9.1721 6.94357 6.96216C9.14761 4.75221 11.7647 2.99976 14.6449 1.80511C17.5252 0.610457 20.6122 -0.00295035 23.7292 -4.69999e-06V-4.69999e-06Z" fill="#001E36"/>
<path d="M47.0121 92.5957H15.1313C14.5729 92.5957 14.3496 92.2598 14.3496 91.588V34.3735C14.3496 33.8137 14.5729 33.5898 15.0754 33.5898H24.9579C25.3488 33.5898 25.5163 33.8137 25.5163 34.2056V81.2312H48.7429C49.2454 81.2312 49.4129 81.5111 49.3013 82.015L47.8496 91.756C47.8418 91.8848 47.8081 92.0108 47.7506 92.1262C47.693 92.2417 47.6127 92.3442 47.5146 92.4278C47.3677 92.5331 47.1926 92.5916 47.0121 92.5957Z" fill="#31A8FF"/>
<path d="M54.9967 47.8094H63.8184C64.3209 47.8094 64.6559 48.0893 64.8792 48.7051C65.0678 49.1143 65.1993 49.5476 65.2701 49.9927C65.3817 50.5526 65.4376 51.1684 65.4934 51.7282C65.5492 52.288 65.5492 53.0158 65.5492 53.7436C67.0166 51.8138 68.8354 50.1801 70.9092 48.9291C73.166 47.5688 75.7581 46.8706 78.3909 46.9137C78.8934 46.9137 79.1167 47.1936 79.1167 47.6974V58.6141C79.1167 59.062 78.8376 59.2299 78.3351 59.2299C75.0572 58.9841 71.7748 59.6424 68.8434 61.1333C67.8174 61.6576 66.8913 62.3588 66.1076 63.2047V91.756C66.1076 92.3158 65.8842 92.5398 65.4376 92.5398H55.7226C55.1642 92.5398 54.9409 92.2598 54.9409 91.644V60.6295C54.9409 59.2859 54.9409 57.8863 54.8851 56.4308C54.8292 54.9752 54.8292 53.5197 54.7734 52.0641C54.7176 50.8325 54.6059 49.6009 54.4384 48.3692C54.4216 48.1937 54.4606 48.0173 54.5501 47.8654C54.687 47.7923 54.846 47.7724 54.9967 47.8094V47.8094Z" fill="#31A8FF"/>
<path d="M118.702 39.5239C117.504 39.0371 116.245 38.7169 114.961 38.5722C113.071 38.3488 111.169 38.2366 109.266 38.2363C103.794 38.2363 98.9925 39.412 95.0283 41.7073C91.0709 44.0207 87.8552 47.4198 85.76 51.5043C83.5825 55.647 82.5217 60.5735 82.5217 66.0598C82.486 69.3847 82.8992 72.6991 83.75 75.9128C84.5144 78.6483 85.7215 81.2393 87.3233 83.5825C88.8107 85.7359 90.6625 87.6117 92.795 89.1248C94.9364 90.6655 97.3389 91.8036 99.8858 92.4838C102.541 93.22 105.283 93.5966 108.037 93.6034C109.961 93.6142 111.884 93.4832 113.788 93.2115C115.338 93.0378 116.859 92.6614 118.311 92.0919C118.588 91.9567 118.818 91.7391 118.967 91.4686C119.117 91.1982 119.18 90.888 119.148 90.5803V82.2389C119.171 82.0868 119.158 81.9313 119.109 81.7854C119.061 81.6394 118.979 81.5071 118.869 81.3991C118.74 81.2964 118.577 81.2453 118.412 81.2556C118.247 81.266 118.092 81.337 117.976 81.4551C116.712 81.9164 115.401 82.2356 114.067 82.4068C112.453 82.5652 110.832 82.64 109.21 82.6308C107.737 82.6224 106.273 82.4153 104.855 82.015C103.365 81.6171 101.937 81.0142 100.612 80.2235C99.2369 79.3845 98.0415 78.281 97.0942 76.9765C96.0247 75.5131 95.1954 73.8878 94.6375 72.162C94.0051 70.0378 93.7038 67.8284 93.7442 65.612C93.6803 62.5254 94.31 59.464 95.5867 56.6547C96.7406 54.2331 98.5618 52.1934 100.835 50.7765C103.304 49.3254 106.126 48.589 108.987 48.6491C110.746 48.6313 112.504 48.7813 114.235 49.097C115.639 49.3236 116.996 49.7774 118.255 50.4406C118.368 50.496 118.492 50.5248 118.618 50.5248C118.744 50.5248 118.868 50.496 118.981 50.4406C119.101 50.3388 119.194 50.209 119.253 50.0626C119.311 49.9162 119.333 49.7576 119.316 49.6009V40.8675C119.352 40.6081 119.313 40.3438 119.205 40.1057C119.096 39.8676 118.921 39.6657 118.702 39.5239V39.5239Z" fill="#31A8FF"/>
</g>
<defs>
<clipPath id="clip0_233_111">
<rect width="134" height="131" fill="white"/>
</clipPath>
</defs>
</svg>
