<svg width="26" height="44" viewBox="0 0 26 44" fill="none" xmlns="http://www.w3.org/2000/svg">
<path d="M3.81205 25.6377L1.14756 20.4396C1.14756 20.4396 -1.22067 1.49142 13.0179 0.675255C27.2565 -0.140907 24.7289 20.7799 24.7289 20.7799L21.9922 26.0605" stroke="white" stroke-miterlimit="10"/>
<path d="M12.2202 30.3464C11.3277 30.0931 10.7983 29.1892 10.7983 28.1142C10.7983 26.844 11.7247 25.8101 12.8696 25.8101C14.0145 25.8101 14.9409 26.8406 14.9409 28.1142C14.9409 29.1721 14.4485 30.0725 13.5775 30.3464M13.5744 30.3464V42.7331H14.7839L22.0903 25.7724C22.0903 25.7724 17.44 25.4985 15.1317 17.7474C15.1317 17.7474 13.2389 19.1546 10.5183 17.7474C10.5183 17.7474 9.5765 24.314 3.81201 25.7587L11.0415 42.7331H12.2233V30.3464" stroke="white" stroke-miterlimit="10" stroke-linecap="round"/>
<path d="M14.6586 7.49276C14.6586 7.49276 14.6392 11.1703 6.18218 9.66057C6.18218 9.66057 5.06558 17.4499 12.4578 18.2549C12.7005 18.2817 12.9562 18.275 13.2248 18.2483C14.8366 18.0779 20.4261 16.4846 19.5684 9.78749C19.5684 9.78749 14.8722 9.81087 14.6586 7.49276Z" stroke="white" stroke-miterlimit="10"/>
</svg>
