<svg width="67" height="113" viewBox="0 0 67 113" fill="none" xmlns="http://www.w3.org/2000/svg">
<path d="M7 68.5L1.40148 55.5886C1.40148 55.5886 -5.04028 3.31311 33.6829 1.06407C72.4 -1.18498 65.5284 56.5287 65.5284 56.5287L60 68.5" stroke="white" stroke-miterlimit="10"/>
<path d="M31.3869 80.2671C28.7973 79.6129 27.2644 77.3021 27.2644 74.5532C27.2644 71.294 29.9516 68.6531 33.2679 68.6531C36.5842 68.6531 39.2715 71.294 39.2715 74.5532C39.2715 77.2601 37.8424 79.5709 35.3139 80.2671M35.3139 80.2671V112H38.8195L60 68.5571C60 68.5571 46.5148 67.8548 39.8272 48C39.8272 48 34.3367 51.6012 26.446 48C26.446 48 23.7098 64.8238 7 68.5211L27.9606 112H31.3869V80.2671" stroke="white" stroke-miterlimit="10" stroke-linecap="round"/>
<path d="M38.3376 22C38.3376 22 38.2831 31.5478 15.1642 27.6349C15.1642 27.6349 12.1124 47.8646 32.3187 49.9546C32.9848 50.0259 33.6811 50.0081 34.4138 49.9368C38.822 49.4915 54.1055 45.3529 51.756 27.9614C51.756 27.9614 38.9189 28.0208 38.3376 22Z" fill="white" stroke="white" stroke-miterlimit="10"/>
</svg>
