<?xml version="1.0" encoding="UTF-8"?>
<svg id="Layer_1" xmlns="http://www.w3.org/2000/svg" version="1.1" viewBox="0 0 630 630">
  <!-- Generator: Adobe Illustrator 29.5.0, SVG Export Plug-In . SVG Version: 2.1.0 Build 137)  -->
  <defs>
    <style>
      .st0, .st1, .st2, .st3, .st4, .st5, .st6, .st7 {
        fill-rule: evenodd;
      }

      .st0, .st8, .st4, .st5, .st6, .st7 {
        fill: #fff;
      }

      .st1 {
        fill: #b36d65;
        stroke-width: 2px;
      }

      .st1, .st9, .st4, .st5, .st6, .st10, .st7 {
        stroke-miterlimit: 10;
      }

      .st1, .st9, .st5, .st6, .st10 {
        stroke: #000;
      }

      .st9 {
        fill: none;
        stroke-width: 1.5px;
      }

      .st11 {
        fill: #020202;
      }

      .st2 {
        fill: #567a9b;
      }

      .st3 {
        fill: #87aed6;
      }

      .st4 {
        stroke: #231f20;
      }

      .st4, .st6, .st7 {
        stroke-width: 2.52px;
      }

      .st5, .st10 {
        stroke-width: 4px;
      }

      .st7 {
        stroke: #020202;
      }

      .st12 {
        display: none;
      }

      .st13 {
        fill: #1a1a1a;
      }
    </style>
  </defs>
  <path d="M319.83,83.12c38.33-23.78,125.72,98.86,56.6,169.75-15.37,15.76-19.93,6.12-40.04,9.44-11.33,1.86-15.94-22.04-66.88-7.07-33.49,9.84-.44,20.92-47.94,31.64-103.71,23.4,7.78-210.27,98.28-203.76h-.01Z"/>
  <path class="st7" d="M328.81,173.43c-4.32-5.68-24.88-11.94-28.45-9.15-.97,19.55-4.85,45.33-8.91,55.34,10.97,3.5,32.75,2.24,42.26-.24-5.07-9.48-5.89-38.71-4.9-45.96h0Z"/>
  <path class="st7" d="M349.79,136.55c5.42-1.5,11.11,2.03,12.73,7.86,1.61,5.85-1.46,11.79-6.88,13.28-5.42,1.5-11.11-2.03-12.73-7.86-1.61-5.83,1.46-11.79,6.88-13.28Z"/>
  <g>
    <path class="st0" d="M300.35,164.28c-21.06,11.06-28.4-30.29-1.76-19.32,3.51-5.44,8.55-8.56,12.71-13.02,3.75-4.02,6.77-9.13,7.31-18.01,4.57-.32,9.05-.24,13.41.34,10.04,1.32,18.5,8.06,22.23,17.49,9.85,24.9-1.45,50.4-17.49,55.79-11.21,3.78-30.21-10.18-36.41-23.26h.01Z"/>
    <path class="st11" d="M300.24,164.35c-5.81,3.91-13.32,2.59-17.17-3.39-3.84-5.43-4.2-15.05,2.71-18.24,4.41-1.97,9.18-.76,13.4.79,0,0-1.93.6-1.93.6,4.96-8.1,14.55-12.38,17.63-21.56,1.23-3.28,1.61-6.98,1.76-10.54,7.21-.54,14.72-.77,21.69,1.55,9.07,3.07,16.08,10.75,18.83,19.85,3.46,10.26,3.79,21.59.63,31.97-3.44,11.9-14.86,26.74-28.78,23.76-12.12-2.77-24.17-14.22-28.77-24.79h0ZM300.45,164.21c5.05,10.24,16.91,20.89,28.84,23.46,13.08,2.51,23.22-11.81,26.41-22.91,2.72-9.17,2.62-19.12-.09-28.29-2.36-9.27-8.9-17.47-18.08-20.63-6.03-2.06-12.6-2.04-18.91-1.7,0,0,.2-.2.2-.2-.21,3.18-.73,6.37-1.86,9.37-3.13,9.51-13.1,13.83-18.3,21.86-26.06-11.03-19.76,29.6,1.79,19.03h0Z"/>
  </g>
  <path class="st6" d="M321.31,508.27l-28.45-.63-1.99,79.71c25.1,9.88,174.27,13.34,187.88-14.07-106.45-25.72-95.37-111.64-157.44-65Z"/>
  <path class="st4" d="M438.58,590.01c20.64-3.35,36.2-8.72,40.17-16.73-16.75-4.05-30.59-9.59-42.26-15.86-1.26,4.23-1.94,8.77-1.94,13.48,0,6.87,1.45,13.36,4.03,19.11Z"/>
  <path class="st2" d="M344.67,586.01l-1.99-79.71c8.38-4.71,111.43-39.98,114.21-46.58-7.9-16.24-10.02-37.7-62.8-51.3,263.67-94.27,251.12,160.81-49.42,177.57h0Z"/>
  <path class="st3" d="M342.92,515.93l-.24-9.61c8.38-4.71,111.43-39.98,114.21-46.58-7.9-16.24-10.02-37.7-62.8-51.29,93.77-33.53,152.57-22.84,175.95,5.56-31.3,53.35-119.23,93.73-227.11,101.92h0Z"/>
  <path class="st2" d="M296.63,581.83c16.66-19.95,116.26-70.71,110.09-101.64-9.15-45.9-135.12-69.68-170.45-58.6-197.9-70.74-263.14,99.46-79.48,150.34,37.06,10.27,81.27,11.92,139.84,9.9h.01Z"/>
  <path class="st3" d="M390.92,509.97c10.86-10.75,17.55-21.05,15.81-29.79-9.15-45.9-135.12-69.68-170.45-58.6-91.72-32.79-154.92-13.8-178.08,21.05,47.97,44.64,139.33,74.82,244.17,74.82,30.95,0,60.71-2.63,88.54-7.48Z"/>
  <path class="st6" d="M314.23,506.94l28.45-.63,1.99,79.71c-25.1,9.88-174.27,13.34-187.88-14.07,106.44-25.72,95.37-111.64,157.44-65Z"/>
  <path class="st4" d="M196.96,588.67c-20.64-3.35-36.2-8.72-40.17-16.73,16.74-4.04,30.59-9.59,42.26-15.86,1.26,4.23,1.94,8.77,1.94,13.48,0,6.87-1.45,13.36-4.03,19.11Z"/>
  <path class="st4" d="M245.56,519.16c22.19-23.01,34.06-38.23,68.67-12.22-8.03,11.82-23.31,19.81-40.85,19.81-10.42,0-20.03-2.82-27.82-7.58Z"/>
  <path class="st8" d="M345.73,505.08c-.72.29-1.52-.05-1.81-.77-.29-.72.05-1.52.77-1.81l128.08-52.24c.72-.29,1.52.05,1.81.77.29.72-.05,1.52-.77,1.81l-128.08,52.24Z"/>
  <path class="st8" d="M156.68,459.13c-.72-.28-1.07-1.08-.79-1.8.28-.72,1.08-1.07,1.8-.79l105.7,41c.72.28,1.07,1.08.79,1.8-.28.72-1.08,1.07-1.8.79l-105.7-41Z"/>
  <path class="st1" d="M359.28,241.05c-10.76-3.21,2.03-16.39-.61-22.3-31.88-1.52-61.9-2.94-87.34-6.43,4,10.86,9.65,16.37-1.36,31.53-59.58,9.83-243.85,172.07-65.75,212.59,315.07,96.98,396.18-113.27,155.04-215.41h.01Z"/>
  <path d="M221.04,405.92l16.43-108.1h-.02c.12-.75.68-1.26,1.24-1.12.56.14.93.87.82,1.62l-16.33,110.93c-.12.75-.68,1.26-1.24,1.12-.45-.11-.77-.6-.82-1.17"/>
  <path d="M384.64,306.82c-.13-.76.28-1.49.93-1.65.65-.15,1.28.33,1.42,1.08l15.22,85.44c.13.76-.28,1.49-.93,1.65-.65.16-1.28-.33-1.42-1.08l-15.22-85.44Z"/>
  <g>
    <path class="st6" d="M204.06,458.56l17.34-47.88,46.97,10.98,56.2,34.44c-3.1,5.37-5.28,9.9-13.19,10.31,4.08,3.92,11.32,5.53,14.06,8.19-3.81,9.12-19.77,6.53-22.03,5.38-14.33,15.27-39.64-2.72-49.28-6.04-5.83.58-39.2-2.85-50.06-15.36h-.01Z"/>
    <path d="M263.49,456.11c-.64-.42-.84-1.27-.43-1.92.42-.64,1.27-.84,1.92-.43l39.16,25.04c.64.42.84,1.27.43,1.92-.41.64-1.27.84-1.91.43l-39.16-25.04Z"/>
    <path d="M269.39,441.01c-.62-.47-.74-1.34-.29-1.95.47-.62,1.34-.74,1.95-.29,4.56,3.41,15.71,10.65,26.84,17.64,12.83,8.06,25.58,15.77,28.1,16.91.71.32,1.02,1.13.71,1.84-.32.71-1.13,1.02-1.84.71-2.65-1.18-15.54-8.98-28.45-17.09-11.2-7.04-22.43-14.33-27.01-17.75h0Z"/>
  </g>
  <path d="M276.72,428.41c-.65-.4-.87-1.26-.47-1.92.4-.65,1.26-.87,1.92-.47l47.12,28.87c.66.4.87,1.26.47,1.91-.4.65-1.26.87-1.92.47l-47.12-28.87Z"/>
  <g id="hånd" class="st12">
    <path class="st6" d="M402.7,245.36c5.33,2.97,7.7,8.87,5.29,13.17-2.39,4.3-8.67,5.37-13.99,2.39-5.33-2.97-7.7-8.87-5.29-13.17,2.41-4.3,8.67-5.37,13.99-2.39Z"/>
    <path class="st6" d="M430.93,254.97c-8.35-4.06-31.03-5.95-43.62-3.77-6.99,1.21-3.49,14.88.53,16.05-3,4.56-3.12,12.39.95,18.24-2.28,4.28-1.21,13,2.88,16.77,4.27,14.82,11.64,15.4,19.88,16l-.43,135.79c80.08-1.83,62.48-94.65,36.36-158.6l-16.54-40.51h-.01Z"/>
    <path d="M387.97,268.65c-.77.06-1.44-.5-1.5-1.27-.06-.77.5-1.44,1.27-1.5,4.32-.37,9.78-.15,15.06.33,6.8.63,13.34,1.7,16.86,2.6.74.19,1.2.95,1.02,1.69-.18.74-.95,1.2-1.69,1.01-3.44-.87-9.8-1.93-16.44-2.53-5.12-.47-10.4-.67-14.58-.32Z"/>
    <path d="M388.9,286.85c-.77.06-1.44-.5-1.5-1.27-.06-.77.5-1.44,1.27-1.5,4.25-.37,9.29-.15,14.16.34,6.5.64,12.69,1.79,16.27,2.7.74.19,1.2.95,1.02,1.69-.19.74-.95,1.2-1.69,1.02-3.49-.88-9.54-1.99-15.86-2.62-4.7-.47-9.58-.68-13.66-.33v-.03Z"/>
    <path d="M391.66,303.66c-.77,0-1.39-.63-1.39-1.4s.63-1.39,1.4-1.39c4.69.03,9.67.38,14.26.89,5.09.58,9.75,1.39,13.04,2.22.74.19,1.2.95,1.02,1.69-.19.74-.95,1.2-1.69,1.02-3.19-.81-7.71-1.59-12.66-2.14-4.55-.52-9.44-.86-13.97-.88h-.01Z"/>
  </g>
  <path class="st0" d="M372.93,335.73h200.04l-70.23,149.11h-200.02l70.22-149.11Z"/>
  <path d="M373.17,334.33h202.23l-71.54,151.91h-203.11c23.84-50.64,47.69-101.28,71.54-151.91h.88ZM571.01,337.13h-196.95l-68.91,146.32h196.95l68.91-146.32Z"/>
  <path class="st13" d="M245.74,486.23c-.77,0-1.4-.63-1.4-1.4s.63-1.4,1.4-1.4h257.02c.77,0,1.4.63,1.4,1.4s-.63,1.4-1.4,1.4H245.74Z"/>
  <path d="M438.08,422.15c6.56,0,11.87-5.31,11.87-11.87s-5.31-11.87-11.87-11.87-11.87,5.31-11.87,11.87,5.31,11.87,11.87,11.87Z"/>
  <path d="M220.6,411.77l-37.08-28.89v.02c-.28-.21-.27-.96,0-1.66.28-.7.73-1.11,1-.91l38.16,29.53c.27.21,2.35,1.08,2.07,1.79-.22.56-.56.93-.82.95"/>
  <path class="st6" d="M337.05,174.33"/>
  <g>
    <line class="st8" x1="321.32" y1="143.32" x2="335.81" y2="137.19"/>
    <path d="M321.26,143.18c2.95-5.01,8.85-7.48,14.5-6.13,0,0,.12.28.12.28-4.76,2.21-9.59,4.26-14.5,6.13,0,0-.12-.28-.12-.28h0Z"/>
  </g>
  <path class="st5" d="M211.05,75.36"/>
  <g>
    <line class="st8" x1="342.48" y1="137.19" x2="354.14" y2="140.67"/>
    <path d="M342.52,137.05c4.25-2.32,9.37-.77,11.67,3.48,0,0-.09.29-.09.29-3.94-.98-7.83-2.14-11.67-3.48,0,0,.09-.29.09-.29h0Z"/>
  </g>
  <path d="M286.32,149.96c5.2-2.89,9.79,1.08,11.64,5.91-.95-.7-2.15-1.64-3.2-2.18-1.77-.96-3.72-1.99-5.79-1.28,0,0-.05-.09-.05-.09.56-.49,1.32-.75,2.09-.8,2.31-.12,4.38,1.14,6.07,2.59,0,0-.71.5-.71.5-.59-1.94-1.72-4-3.89-4.4-2.03-.46-4.05-.44-6.13-.16,0,0-.04-.09-.04-.09h0Z"/>
  <path class="st9" d="M274.29,246.14s26.15,13.01,54.84,5.35"/>
  <ellipse class="st10" cx="331.47" cy="152.79" rx="1.01" ry="3.65"/>
  <ellipse class="st10" cx="346.25" cy="152.79" rx="1.01" ry="3.65"/>
</svg>