<svg width="135" height="132" viewBox="0 0 135 132" fill="none" xmlns="http://www.w3.org/2000/svg">
<g clip-path="url(#clip0_233_107)">
<path d="M23.9063 -4.61939e-06H111.094C114.234 -0.00297276 117.344 0.615117 120.246 1.81889C123.148 3.02266 125.784 4.78849 128.005 7.0153C130.225 9.24212 131.986 11.8862 133.186 14.7963C134.387 17.7063 135.003 20.8252 135 23.9744V108.026C135.003 111.175 134.387 114.294 133.186 117.204C131.986 120.114 130.225 122.758 128.005 124.985C125.784 127.211 123.148 128.977 120.246 130.181C117.344 131.385 114.234 132.003 111.094 132H23.9063C20.766 132.003 17.656 131.385 14.7542 130.181C11.8525 128.977 9.21588 127.211 6.99539 124.985C4.7749 122.758 3.01409 120.114 1.81374 117.204C0.613384 114.294 -0.0029491 111.175 1.06092e-05 108.026V23.9744C-0.0029491 20.8252 0.613384 17.7063 1.81374 14.7963C3.01409 11.8862 4.7749 9.24212 6.99539 7.0153C9.21588 4.78849 11.8525 3.02266 14.7542 1.81889C17.656 0.615117 20.766 -0.00297276 23.9063 -4.61939e-06V-4.61939e-06Z" fill="#00005B"/>
<path d="M32.0625 92.5692V34.5231C32.0625 34.1282 32.2313 33.9026 32.625 33.9026C33.5813 33.9026 34.4812 33.9026 35.775 33.8462C37.0687 33.7897 38.5312 33.7897 40.05 33.7333C41.5687 33.6769 43.2 33.6769 44.9438 33.6205C46.6875 33.5641 48.375 33.5641 50.0625 33.5641C54.675 33.5641 58.5 34.1282 61.65 35.3128C64.4737 36.2745 67.0485 37.8546 69.1875 39.9385C71.0001 41.7621 72.4005 43.9553 73.2938 46.3692C74.1452 48.7201 74.583 51.2014 74.5875 53.7026C74.5875 58.5538 73.4625 62.559 71.2125 65.718C68.9521 68.8726 65.7961 71.2709 62.1562 72.6C58.3312 74.0103 54.1125 74.518 49.5 74.518C48.15 74.518 47.25 74.518 46.6875 74.4615C46.125 74.4051 45.3375 74.4051 44.2687 74.4051V92.5128C44.2813 92.6057 44.2751 92.7001 44.2506 92.7904C44.2261 92.8808 44.1837 92.9654 44.126 93.039C44.0683 93.1127 43.9965 93.174 43.9147 93.2192C43.8329 93.2645 43.7429 93.2928 43.65 93.3026H32.7375C32.2875 93.3026 32.0625 93.0769 32.0625 92.5692ZM44.325 44.7897V63.7436C45.1125 63.8 45.8437 63.8564 46.5187 63.8564H49.5C51.6959 63.8591 53.8787 63.5164 55.9688 62.841C57.7619 62.3122 59.364 61.2738 60.5812 59.8513C61.7625 58.441 62.325 56.5231 62.325 54.041C62.3779 52.2783 61.9292 50.5368 61.0312 49.0205C60.0933 47.5559 58.714 46.4295 57.0938 45.8051C54.982 44.9757 52.7225 44.5916 50.4562 44.6769C48.9937 44.6769 47.7 44.6769 46.6313 44.7333C45.8624 44.6829 45.0905 44.7018 44.325 44.7897V44.7897Z" fill="#9999FF"/>
<path d="M82.4628 48.0615H92.3065C92.5731 48.068 92.8309 48.1587 93.043 48.3208C93.2551 48.4829 93.4108 48.708 93.4878 48.9641C93.6594 49.418 93.7728 49.8918 93.8253 50.3744C93.9378 50.9385 94.0503 51.559 94.1065 52.1231C94.1628 52.6872 94.219 53.4205 94.219 54.1539C95.908 52.1765 97.9489 50.5314 100.238 49.3026C102.852 47.846 105.797 47.0884 108.788 47.1026C108.88 47.09 108.974 47.0962 109.065 47.1207C109.155 47.1453 109.239 47.1878 109.312 47.2457C109.386 47.3036 109.447 47.3756 109.492 47.4576C109.537 47.5397 109.566 47.6299 109.575 47.7231V58.9487C109.575 59.4 109.294 59.5692 108.675 59.5692C106.635 59.5023 104.594 59.6918 102.6 60.1333C100.975 60.4697 99.3913 60.9804 97.8753 61.6564C96.787 62.1485 95.8107 62.8588 95.0065 63.7436V92.5128C95.0065 93.0769 94.7815 93.3026 94.2753 93.3026H83.194C83.0902 93.3201 82.984 93.3163 82.8818 93.2914C82.7795 93.2665 82.6834 93.221 82.5992 93.1577C82.515 93.0944 82.4446 93.0146 82.3921 92.9231C82.3396 92.8317 82.3063 92.7304 82.294 92.6256V61.1487C82.294 59.7949 82.294 58.3846 82.2378 56.918C82.1815 55.4513 82.1815 53.9846 82.1253 52.518C82.1253 51.2205 82.0128 49.9795 81.9003 48.6821C81.8853 48.6154 81.8837 48.5464 81.8954 48.4791C81.9071 48.4118 81.932 48.3474 81.9686 48.2898C82.0052 48.2321 82.0528 48.1823 82.1086 48.1431C82.1644 48.1039 82.2275 48.0762 82.294 48.0615C82.294 48.0051 82.4065 48.0051 82.4628 48.0615V48.0615Z" fill="#9999FF"/>
</g>
<defs>
<clipPath id="clip0_233_107">
<rect width="135" height="132" fill="white"/>
</clipPath>
</defs>
</svg>
