<svg width="244" height="47" viewBox="0 0 244 47" fill="none" xmlns="http://www.w3.org/2000/svg">
<path d="M1 46C1 46 10.7603 20.2806 29.1468 13.2001C30.3993 12.7187 31.8294 13.1274 32.6355 14.1947C34.8536 17.1196 36.4294 24.8495 20.0378 43.0071C20.0378 43.0071 30.3355 33.138 27.7713 28.8416" stroke="white" stroke-miterlimit="10"/>
<path d="M39 24C39 24 32.2307 28.0658 33.0725 30.6584C33.0725 30.6584 33.9143 32.0555 37.0023 29.1987" stroke="white" stroke-miterlimit="10"/>
<path d="M39.1183 27.0071C39.1183 27.0071 37.8129 33.1032 43.8744 27.0071C43.8744 27.0071 42.1382 33.3325 47.9429 27.5919C47.9429 27.5919 48.1431 30.8201 54 25" stroke="white" stroke-miterlimit="10"/>
<path d="M60.9492 30.9162C60.9492 30.9162 52.0635 32.6525 60.9492 20.3154C69.8349 7.97821 97.8318 -2.79216 100 6.51223" stroke="white" stroke-miterlimit="10"/>
<path d="M78 21C78 21 68.5869 31.2856 71.592 30.9939" stroke="white" stroke-miterlimit="10"/>
<path d="M81.3398 30.799C81.3398 30.799 86.2753 25.8699 82.8853 27.0027C79.4953 28.1356 76.4319 31.3261 77.0897 31.548C77.7475 31.77 84.8126 31.7792 97.8388 19.2485C98.0734 19.0219 98.4598 19.0912 98.5932 19.3872C99.1865 20.6819 99.1819 25.5508 88.5797 43.5563C88.4785 43.732 88.2485 43.7875 88.0829 43.6765C87.1446 43.0615 84.4584 40.9669 84.8494 37.4897C85.3231 33.2912 95.7276 32.3387 108.335 18C108.335 18 99.2739 31.4694 101.638 31.6266C104.002 31.7838 108.335 26.7947 108.335 26.7947C108.335 26.7947 104.191 31.192 116.495 28.7228C116.854 28.6488 117.194 28.5101 117.493 28.302C118.363 27.7056 119.931 26.4432 118.266 26.0826C116.173 25.6341 111.817 28.4546 117.406 29.5598C117.949 29.6661 118.284 30.2164 118.128 30.7481C117.213 33.8646 114.306 43.1956 111.564 45.8868C111.564 45.8868 110.7 47.1537 110.778 41.212" stroke="white" stroke-miterlimit="10"/>
<path d="M79 20L82 16" stroke="white" stroke-miterlimit="10"/>
<path d="M125.607 29.1329C125.607 29.1329 123.448 31.7947 122.139 30.6018C121.002 29.5652 127.149 26.7273 128.768 26.0108C128.862 25.9667 128.961 26.0668 128.898 26.1468C127.927 27.3477 124.748 31.6746 130 30.9101" stroke="white" stroke-miterlimit="10"/>
<path d="M138.927 26.563C139.129 26.3001 138.88 25.9359 138.557 26.0097C136.685 26.4385 132.401 27.6787 132.026 30.0163C131.585 32.7504 136.891 29.191 138.927 26.563Z" stroke="white" stroke-miterlimit="10"/>
<path d="M146.581 30.6408C146.581 30.6408 149.974 21.7663 137.455 31C137.455 31 135.692 31.067 139.109 26" stroke="white" stroke-miterlimit="10"/>
<path d="M155.365 25.7197C155.365 25.7197 153.637 22.2535 149.116 29.7541C148.834 30.221 149.088 30.82 149.638 30.9521C151.284 31.3441 155.777 29.6704 167 13C167 13 159.882 22.8833 159.271 29.2785" stroke="white" stroke-miterlimit="10"/>
<path d="M172.603 27.4138C172.603 27.4138 163.746 32.492 168.303 34.4458C172.86 36.3997 179.376 34.1847 192.141 11.2653C192.141 11.2653 197.171 -0.836007 203.754 1.2394C210.337 3.3148 188.696 15.8437 188.696 15.8437" stroke="white" stroke-miterlimit="10"/>
<path d="M200.302 12.8004C200.302 12.8004 188.266 25.3217 186.455 31.6972C186.383 31.949 186.022 31.9711 185.928 31.7237C185.509 30.6412 184.576 29.3688 182.611 30.6721C179.646 32.6383 187.978 28.3217 196.688 26.5941C196.959 26.5411 197.135 26.8636 196.941 27.0536C194.85 29.1213 188.834 35.382 196.157 32.033C196.206 32.0109 196.251 31.9711 196.278 31.9269L200.199 25.6884C200.257 25.5956 200.357 25.547 200.465 25.5603C201.641 25.6928 208.396 26.3688 208.824 24.1155C209.292 21.6501 201.92 29.5058 201.744 31.5735C201.569 33.6412 212.181 29.9211 218.025 21.2878C223.87 12.6546 224.194 8.9389 223.293 9.00076C222.464 9.0582 213.055 23.2098 211.595 28.9711C211.518 29.2672 211.924 29.4483 212.1 29.1921C213.546 27.1067 217.011 22.6398 220.017 22.737C223.937 22.8652 216.547 29.4792 214.939 29.4792C213.33 29.4792 211.726 28.2819 214.488 26.8946C217.25 25.5072 217.832 28.4719 218.152 31.3702C218.444 34.0035 224.406 27.5926 225.501 26.3909C225.614 26.2672 225.587 26.086 225.456 25.9844C224.983 25.6398 223.811 25.4189 222.572 30.1066C222.509 30.3496 222.784 30.5484 223 30.4071C226.483 28.1184 243.855 16.3704 242.967 10.6355C242.931 10.4146 242.643 10.3351 242.485 10.503C240.254 12.9109 228.169 26.2363 231.639 28.9977C231.72 29.0639 231.837 29.0728 231.931 29.0242C232.544 28.7237 234.901 27.491 237.497 25.0036" stroke="white" stroke-miterlimit="10"/>
<path d="M207 14L203 17" stroke="white" stroke-miterlimit="10"/>
<path d="M200 11H201" stroke="white" stroke-miterlimit="10"/>
</svg>
