<svg xmlns="http://www.w3.org/2000/svg" width="138" height="132" fill="none"><g clip-path="url(#a)"><path fill="#300" d="M24.438 0h89.125c3.21-.003 6.389.615 9.355 1.819a24.455 24.455 0 0 1 7.931 5.196 23.924 23.924 0 0 1 5.297 7.781A23.56 23.56 0 0 1 138 23.974v84.052a23.559 23.559 0 0 1-1.854 9.178 23.927 23.927 0 0 1-5.297 7.781 24.47 24.47 0 0 1-7.931 5.196 24.817 24.817 0 0 1-9.355 1.819H24.437a24.82 24.82 0 0 1-9.355-1.819 24.467 24.467 0 0 1-7.931-5.196 23.93 23.93 0 0 1-5.297-7.781A23.558 23.558 0 0 1 0 108.026V23.974a23.558 23.558 0 0 1 1.854-9.178 23.927 23.927 0 0 1 5.297-7.78 24.451 24.451 0 0 1 7.931-5.197A24.825 24.825 0 0 1 24.437 0Z"/><path fill="#FF9A00" d="M66.873 79.2h-21.39l-4.37 13.256a.985.985 0 0 1-.39.603 1.02 1.02 0 0 1-.703.187H29.21c-.632 0-.805-.338-.632-1.015l18.515-52.292c.172-.565.345-1.185.575-1.862.231-1.21.347-2.437.345-3.667a.556.556 0 0 1 .105-.399.577.577 0 0 1 .355-.221h14.892c.46 0 .69.169.748.451L85.1 92.344c.173.62 0 .902-.575.902H72.508a.88.88 0 0 1-.575-.146.852.852 0 0 1-.345-.474L66.873 79.2ZM48.818 67.749h14.605a79.04 79.04 0 0 0-1.323-4.062c-.517-1.466-1.035-3.159-1.552-4.851-.518-1.692-1.093-3.441-1.668-5.19a120.228 120.228 0 0 1-1.552-5.02 307.69 307.69 0 0 0-1.265-4.4h-.115a68.197 68.197 0 0 1-1.955 7.277c-.863 2.707-1.725 5.528-2.645 8.348a109.186 109.186 0 0 1-2.53 7.898ZM97.635 43.436a7.241 7.241 0 0 1-2.76-.483 7.135 7.135 0 0 1-2.357-1.492 7.253 7.253 0 0 1-1.955-5.19 6.526 6.526 0 0 1 .49-2.726 6.634 6.634 0 0 1 1.58-2.294 7.444 7.444 0 0 1 5.117-1.974c2.243 0 3.968.677 5.233 1.974a7.045 7.045 0 0 1 1.897 5.02 7.027 7.027 0 0 1-.47 2.796 7.123 7.123 0 0 1-1.542 2.395 6.776 6.776 0 0 1-2.398 1.544 6.88 6.88 0 0 1-2.835.43ZM91.195 92.4V48.964c0-.564.23-.79.748-.79h11.385c.517 0 .747.282.747.79V92.4c0 .62-.23.903-.747.903h-11.27a.821.821 0 0 1-.654-.247.785.785 0 0 1-.209-.656Z"/></g><defs><clipPath id="a"><path fill="#fff" d="M0 0h138v132H0z"/></clipPath></defs></svg>