<svg xmlns="http://www.w3.org/2000/svg" width="135" height="132" fill="none"><g clip-path="url(#a)"><path fill="#00005B" d="M23.906 0h87.188c3.14-.003 6.25.615 9.152 1.819a23.883 23.883 0 0 1 7.759 5.196A23.998 23.998 0 0 1 135 23.975v84.051a23.998 23.998 0 0 1-6.995 16.959 23.898 23.898 0 0 1-7.759 5.196 23.822 23.822 0 0 1-9.152 1.819H23.906a23.82 23.82 0 0 1-9.152-1.819 23.895 23.895 0 0 1-7.759-5.196 23.96 23.96 0 0 1-5.181-7.781A24.011 24.011 0 0 1 0 108.026V23.974a24.01 24.01 0 0 1 1.814-9.178 23.956 23.956 0 0 1 5.181-7.78 23.88 23.88 0 0 1 7.76-5.197A23.825 23.825 0 0 1 23.905 0Z"/><path fill="#99F" d="M32.063 92.57V34.522c0-.395.168-.62.562-.62.956 0 1.856 0 3.15-.057 1.294-.056 2.756-.056 4.275-.113 1.519-.056 3.15-.056 4.894-.112 1.743-.057 3.431-.057 5.118-.057 4.613 0 8.438.564 11.588 1.749a20.078 20.078 0 0 1 7.538 4.625 17.967 17.967 0 0 1 4.106 6.431 21.651 21.651 0 0 1 1.294 7.334c0 4.85-1.125 8.856-3.375 12.015a19.277 19.277 0 0 1-9.057 6.882c-3.825 1.41-8.044 1.918-12.656 1.918-1.35 0-2.25 0-2.813-.056-.562-.057-1.35-.057-2.418-.057v18.108a.7.7 0 0 1-.619.79H32.737c-.45 0-.675-.226-.675-.734Zm12.262-47.78v18.954c.787.056 1.519.112 2.194.112H49.5c2.196.003 4.379-.34 6.469-1.015a9.672 9.672 0 0 0 4.612-2.99c1.181-1.41 1.744-3.328 1.744-5.81a9.305 9.305 0 0 0-1.294-5.02 8.162 8.162 0 0 0-3.937-3.216 16.463 16.463 0 0 0-6.638-1.128c-1.462 0-2.756 0-3.825.056a12.85 12.85 0 0 0-2.306.057ZM82.463 48.062h9.844a1.264 1.264 0 0 1 1.18.902c.172.454.286.928.338 1.41.113.564.225 1.185.281 1.75.057.563.113 1.296.113 2.03a20.943 20.943 0 0 1 6.019-4.851 17.396 17.396 0 0 1 8.55-2.2.7.7 0 0 1 .704.355.692.692 0 0 1 .083.265V58.95c0 .451-.281.62-.9.62a24.402 24.402 0 0 0-6.075.564 23.098 23.098 0 0 0-4.725 1.523 8.747 8.747 0 0 0-2.868 2.088v28.769c0 .564-.226.79-.732.79H83.194a.775.775 0 0 1-.9-.677V61.149c0-1.354 0-2.764-.056-4.231s-.056-2.933-.113-4.4c0-1.297-.112-2.538-.225-3.836a.52.52 0 0 1 .394-.62c0-.057.112-.057.169 0Z"/></g><defs><clipPath id="a"><path fill="#fff" d="M0 0h135v132H0z"/></clipPath></defs></svg>