<svg xmlns="http://www.w3.org/2000/svg" width="135" height="132" fill="none"><g clip-path="url(#a)"><path fill="#000B1D" d="M23.906 0h87.188c3.14-.003 6.25.615 9.152 1.819a23.883 23.883 0 0 1 7.759 5.196A23.999 23.999 0 0 1 135 23.974v84.052a23.998 23.998 0 0 1-6.995 16.959 23.898 23.898 0 0 1-7.759 5.196 23.822 23.822 0 0 1-9.152 1.819H23.906a23.82 23.82 0 0 1-9.152-1.819 23.895 23.895 0 0 1-7.759-5.196 23.96 23.96 0 0 1-5.181-7.781A24.011 24.011 0 0 1 0 108.026V23.974a24.012 24.012 0 0 1 1.814-9.178 23.957 23.957 0 0 1 5.181-7.78 23.88 23.88 0 0 1 7.76-5.197A23.825 23.825 0 0 1 23.905 0Z"/><path fill="#0ACF83" d="M53.438 108.308c7.766 0 14.062-6.314 14.062-14.103V80.103H53.437c-7.766 0-14.062 6.314-14.062 14.102 0 7.789 6.296 14.103 14.063 14.103Z"/><path fill="#A259FF" d="M39.375 66c0-7.789 6.296-14.103 14.063-14.103H67.5v28.206H53.437c-7.766 0-14.062-6.314-14.062-14.103Z"/><path fill="#F24E1E" d="M39.375 37.795c0-7.789 6.296-14.103 14.063-14.103H67.5v28.205H53.437c-7.766 0-14.062-6.313-14.062-14.102Z"/><path fill="#FF7262" d="M67.5 23.692h14.063c7.766 0 14.062 6.314 14.062 14.103 0 7.788-6.296 14.102-14.063 14.102H67.5V23.692Z"/><path fill="#1ABCFE" d="M95.625 66c0 7.789-6.296 14.103-14.063 14.103C73.796 80.103 67.5 73.789 67.5 66s6.296-14.103 14.063-14.103c7.766 0 14.062 6.314 14.062 14.103Z"/></g><defs><clipPath id="a"><path fill="#fff" d="M0 0h135v132H0z"/></clipPath></defs></svg>