<svg xmlns="http://www.w3.org/2000/svg" width="67" height="113" fill="none"><path stroke="#fff" stroke-miterlimit="10" d="M7 68.5 1.401 55.589S-5.04 3.313 33.683 1.064C72.4-1.185 65.528 56.53 65.528 56.53L60 68.5"/><path stroke="#fff" stroke-linecap="round" stroke-miterlimit="10" d="M31.387 80.267c-2.59-.654-4.123-2.965-4.123-5.714 0-3.259 2.688-5.9 6.004-5.9 3.316 0 6.004 2.641 6.004 5.9 0 2.707-1.43 5.018-3.958 5.714m0 0V112h3.505L60 68.557S46.515 67.855 39.827 48c0 0-5.49 3.601-13.381 0 0 0-2.736 16.824-19.446 20.521L27.96 112h3.427V80.267"/><path fill="#fff" stroke="#fff" stroke-miterlimit="10" d="M38.338 22s-.055 9.548-23.174 5.635c0 0-3.052 20.23 17.155 22.32.666.07 1.362.053 2.095-.018 4.408-.445 19.691-4.584 17.342-21.976 0 0-12.837.06-13.418-5.961Z"/></svg>