<svg xmlns="http://www.w3.org/2000/svg" id="Layer_1" version="1.1" viewBox="0 0 630 630"><defs><style>.st0,.st2,.st3,.st4,.st6,.st7{fill-rule:evenodd}.st0,.st4,.st6,.st7,.st8{fill:#fff}.st10,.st4,.st6,.st7{stroke-miterlimit:10}.st10,.st6{stroke:#000}.st2{fill:#567a9b}.st3{fill:#87aed6}.st4{stroke:#231f20}.st4,.st6,.st7{stroke-width:2.52px}.st10{stroke-width:4px}.st7{stroke:#020202}</style></defs><path d="M319.83 83.12c38.33-23.78 125.72 98.86 56.6 169.75-15.37 15.76-19.93 6.12-40.04 9.44-11.33 1.86-15.94-22.04-66.88-7.07-33.49 9.84-.44 20.92-47.94 31.64-103.71 23.4 7.78-210.27 98.28-203.76h-.01Z"/><path d="M328.81 173.43c-4.32-5.68-24.88-11.94-28.45-9.15-.97 19.55-4.85 45.33-8.91 55.34 10.97 3.5 32.75 2.24 42.26-.24-5.07-9.48-5.89-38.71-4.9-45.96ZM349.79 136.55c5.42-1.5 11.11 2.03 12.73 7.86 1.61 5.85-1.46 11.79-6.88 13.28-5.42 1.5-11.11-2.03-12.73-7.86-1.61-5.83 1.46-11.79 6.88-13.28Z" class="st7"/><path d="M300.35 164.28c-21.06 11.06-28.4-30.29-1.76-19.32 3.51-5.44 8.55-8.56 12.71-13.02 3.75-4.02 6.77-9.13 7.31-18.01 4.57-.32 9.05-.24 13.41.34 10.04 1.32 18.5 8.06 22.23 17.49 9.85 24.9-1.45 50.4-17.49 55.79-11.21 3.78-30.21-10.18-36.41-23.26h.01Z" class="st0"/><path d="M300.24 164.35c-5.81 3.91-13.32 2.59-17.17-3.39-3.84-5.43-4.2-15.05 2.71-18.24 4.41-1.97 9.18-.76 13.4.79l-1.93.6c4.96-8.1 14.55-12.38 17.63-21.56 1.23-3.28 1.61-6.98 1.76-10.54 7.21-.54 14.72-.77 21.69 1.55 9.07 3.07 16.08 10.75 18.83 19.85 3.46 10.26 3.79 21.59.63 31.97-3.44 11.9-14.86 26.74-28.78 23.76-12.12-2.77-24.17-14.22-28.77-24.79Zm.21-.14c5.05 10.24 16.91 20.89 28.84 23.46 13.08 2.51 23.22-11.81 26.41-22.91 2.72-9.17 2.62-19.12-.09-28.29-2.36-9.27-8.9-17.47-18.08-20.63-6.03-2.06-12.6-2.04-18.91-1.7l.2-.2c-.21 3.18-.73 6.37-1.86 9.37-3.13 9.51-13.1 13.83-18.3 21.86-26.06-11.03-19.76 29.6 1.79 19.03Z" style="fill:#020202"/><path d="m321.31 508.27-28.45-.63-1.99 79.71c25.1 9.88 174.27 13.34 187.88-14.07-106.45-25.72-95.37-111.64-157.44-65Z" class="st6"/><path d="M438.58 590.01c20.64-3.35 36.2-8.72 40.17-16.73-16.75-4.05-30.59-9.59-42.26-15.86a47.23 47.23 0 0 0-1.94 13.48c0 6.87 1.45 13.36 4.03 19.11Z" class="st4"/><path d="m344.67 586.01-1.99-79.71c8.38-4.71 111.43-39.98 114.21-46.58-7.9-16.24-10.02-37.7-62.8-51.3 263.67-94.27 251.12 160.81-49.42 177.57Z" class="st2"/><path d="m342.92 515.93-.24-9.61c8.38-4.71 111.43-39.98 114.21-46.58-7.9-16.24-10.02-37.7-62.8-51.29 93.77-33.53 152.57-22.84 175.95 5.56-31.3 53.35-119.23 93.73-227.11 101.92Z" class="st3"/><path d="M296.63 581.83c16.66-19.95 116.26-70.71 110.09-101.64-9.15-45.9-135.12-69.68-170.45-58.6-197.9-70.74-263.14 99.46-79.48 150.34 37.06 10.27 81.27 11.92 139.84 9.9h.01Z" class="st2"/><path d="M390.92 509.97c10.86-10.75 17.55-21.05 15.81-29.79-9.15-45.9-135.12-69.68-170.45-58.6-91.72-32.79-154.92-13.8-178.08 21.05 47.97 44.64 139.33 74.82 244.17 74.82 30.95 0 60.71-2.63 88.54-7.48Z" class="st3"/><path d="m314.23 506.94 28.45-.63 1.99 79.71c-25.1 9.88-174.27 13.34-187.88-14.07 106.44-25.72 95.37-111.64 157.44-65Z" class="st6"/><path d="M196.96 588.67c-20.64-3.35-36.2-8.72-40.17-16.73 16.74-4.04 30.59-9.59 42.26-15.86a47.23 47.23 0 0 1 1.94 13.48c0 6.87-1.45 13.36-4.03 19.11ZM245.56 519.16c22.19-23.01 34.06-38.23 68.67-12.22-8.03 11.82-23.31 19.81-40.85 19.81-10.42 0-20.03-2.82-27.82-7.58Z" class="st4"/><path d="M345.73 505.08a1.38 1.38 0 0 1-1.81-.77c-.29-.72.05-1.52.77-1.81l128.08-52.24c.72-.29 1.52.05 1.81.77.29.72-.05 1.52-.77 1.81l-128.08 52.24ZM156.68 459.13a1.384 1.384 0 0 1-.79-1.8c.28-.72 1.08-1.07 1.8-.79l105.7 41c.72.28 1.07 1.08.79 1.8s-1.08 1.07-1.8.79l-105.7-41Z" class="st8"/><path d="M359.28 241.05c-10.76-3.21 2.03-16.39-.61-22.3-31.88-1.52-61.9-2.94-87.34-6.43 4 10.86 9.65 16.37-1.36 31.53-59.58 9.83-243.85 172.07-65.75 212.59 315.07 96.98 396.18-113.27 155.04-215.41h.01Z" style="stroke:#000;stroke-miterlimit:10;fill:#b36d65;stroke-width:2px;fill-rule:evenodd"/><path d="m221.04 405.92 16.43-108.1h-.02c.12-.75.68-1.26 1.24-1.12.56.14.93.87.82 1.62l-16.33 110.93c-.12.75-.68 1.26-1.24 1.12-.45-.11-.77-.6-.82-1.17M384.64 306.82c-.13-.76.28-1.49.93-1.65.65-.15 1.28.33 1.42 1.08l15.22 85.44c.13.76-.28 1.49-.93 1.65-.65.16-1.28-.33-1.42-1.08l-15.22-85.44Z"/><path d="m204.06 458.56 17.34-47.88 46.97 10.98 56.2 34.44c-3.1 5.37-5.28 9.9-13.19 10.31 4.08 3.92 11.32 5.53 14.06 8.19-3.81 9.12-19.77 6.53-22.03 5.38-14.33 15.27-39.64-2.72-49.28-6.04-5.83.58-39.2-2.85-50.06-15.36h-.01Z" class="st6"/><path d="M263.49 456.11c-.64-.42-.84-1.27-.43-1.92.42-.64 1.27-.84 1.92-.43l39.16 25.04c.64.42.84 1.27.43 1.92-.41.64-1.27.84-1.91.43l-39.16-25.04ZM269.39 441.01c-.62-.47-.74-1.34-.29-1.95.47-.62 1.34-.74 1.95-.29 4.56 3.41 15.71 10.65 26.84 17.64 12.83 8.06 25.58 15.77 28.1 16.91.71.32 1.02 1.13.71 1.84-.32.71-1.13 1.02-1.84.71-2.65-1.18-15.54-8.98-28.45-17.09-11.2-7.04-22.43-14.33-27.01-17.75ZM276.72 428.41c-.65-.4-.87-1.26-.47-1.92.4-.65 1.26-.87 1.92-.47l47.12 28.87c.66.4.87 1.26.47 1.91-.4.65-1.26.87-1.92.47l-47.12-28.87Z"/><path d="M372.93 335.73h200.04l-70.23 149.11H302.72l70.22-149.11Z" class="st0"/><path d="M373.17 334.33H575.4l-71.54 151.91H300.75c23.84-50.64 47.69-101.28 71.54-151.91h.88Zm197.84 2.8H374.06l-68.91 146.32H502.1l68.91-146.32Z"/><path d="M245.74 486.23c-.77 0-1.4-.63-1.4-1.4s.63-1.4 1.4-1.4h257.02c.77 0 1.4.63 1.4 1.4s-.63 1.4-1.4 1.4H245.74Z" style="fill:#1a1a1a"/><path d="M438.08 422.15c6.56 0 11.87-5.31 11.87-11.87s-5.31-11.87-11.87-11.87-11.87 5.31-11.87 11.87 5.31 11.87 11.87 11.87ZM220.6 411.77l-37.08-28.89v.02c-.28-.21-.27-.96 0-1.66.28-.7.73-1.11 1-.91l38.16 29.53c.27.21 2.35 1.08 2.07 1.79-.22.56-.56.93-.82.95"/><path d="m321.32 143.32 14.49-6.13" class="st8"/><path d="M321.26 143.18c2.95-5.01 8.85-7.48 14.5-6.13l.12.28c-4.76 2.21-9.59 4.26-14.5 6.13l-.12-.28Z"/><path d="m342.48 137.19 11.66 3.48" class="st8"/><path d="M342.52 137.05c4.25-2.32 9.37-.77 11.67 3.48l-.09.29c-3.94-.98-7.83-2.14-11.67-3.48l.09-.29ZM286.32 149.96c5.2-2.89 9.79 1.08 11.64 5.91-.95-.7-2.15-1.64-3.2-2.18-1.77-.96-3.72-1.99-5.79-1.28l-.05-.09c.56-.49 1.32-.75 2.09-.8 2.31-.12 4.38 1.14 6.07 2.59l-.71.5c-.59-1.94-1.72-4-3.89-4.4-2.03-.46-4.05-.44-6.13-.16l-.04-.09Z"/><path d="M274.29 246.14s26.15 13.01 54.84 5.35" style="fill:none;stroke-width:1.5px;stroke:#000;stroke-miterlimit:10"/><ellipse cx="331.47" cy="152.79" class="st10" rx="1.01" ry="3.65"/><ellipse cx="346.25" cy="152.79" class="st10" rx="1.01" ry="3.65"/></svg>