<svg xmlns="http://www.w3.org/2000/svg" width="244" height="47" fill="none"><path stroke="#fff" stroke-miterlimit="10" d="M1 46s9.76-25.72 28.147-32.8a3.024 3.024 0 0 1 3.489.995c2.218 2.925 3.793 10.654-12.598 28.812 0 0 10.297-9.869 7.733-14.165M39 24s-6.77 4.066-5.928 6.658c0 0 .842 1.398 3.93-1.46M39.118 27.007s-1.305 6.096 4.756 0c0 0-1.736 6.326 4.069.585 0 0 .2 3.228 6.057-2.592M60.95 30.916s-8.887 1.737 0-10.6C69.834 7.977 97.831-2.793 100 6.511M78 21s-9.413 10.286-6.408 9.994M81.34 30.799s4.935-4.93 1.545-3.796c-3.39 1.133-6.453 4.323-5.795 4.545.657.222 7.723.231 20.749-12.3a.468.468 0 0 1 .754.14c.593 1.294.589 6.163-10.013 24.168a.351.351 0 0 1-.497.12c-.938-.614-3.625-2.71-3.234-6.186.474-4.199 10.879-5.151 23.486-19.49 0 0-9.061 13.47-6.697 13.627 2.364.157 6.697-4.832 6.697-4.832s-4.144 4.397 8.16 1.928a2.69 2.69 0 0 0 .998-.421c.87-.596 2.438-1.859.773-2.22-2.093-.448-6.449 2.373-.86 3.478a.941.941 0 0 1 .722 1.188c-.915 3.117-3.822 12.448-6.564 15.139 0 0-.864 1.267-.786-4.675M79 20l3-4M125.607 29.133s-2.159 2.662-3.468 1.469c-1.137-1.037 5.01-3.875 6.629-4.591.094-.044.193.056.13.136-.971 1.2-4.15 5.528 1.102 4.763M138.927 26.563c.202-.263-.047-.627-.37-.553-1.872.428-6.156 1.669-6.531 4.006-.441 2.734 4.865-.825 6.901-3.453Z"/><path stroke="#fff" stroke-miterlimit="10" d="M146.581 30.64s3.393-8.874-9.126.36c0 0-1.763.067 1.654-5M155.365 25.72s-1.728-3.466-6.249 4.034c-.282.467-.028 1.066.522 1.198 1.646.392 6.139-1.282 17.362-17.952 0 0-7.118 9.883-7.729 16.279M172.603 27.414s-8.857 5.078-4.3 7.032c4.557 1.954 11.073-.261 23.838-23.18 0 0 5.03-12.102 11.613-10.027 6.583 2.076-15.058 14.605-15.058 14.605M200.302 12.8s-12.036 12.522-13.847 18.897c-.072.252-.433.274-.527.027-.419-1.083-1.352-2.355-3.317-1.052-2.965 1.966 5.367-2.35 14.077-4.078.271-.053.447.27.253.46-2.091 2.067-8.107 8.328-.784 4.979a.283.283 0 0 0 .121-.106l3.921-6.239a.27.27 0 0 1 .266-.128c1.176.133 7.931.809 8.359-1.444.468-2.466-6.904 5.39-7.08 7.457-.175 2.068 10.437-1.652 16.281-10.285 5.845-8.633 6.169-12.35 5.268-12.287-.829.057-10.238 14.209-11.698 19.97-.077.296.329.477.505.221 1.446-2.085 4.911-6.552 7.917-6.455 3.92.128-3.47 6.742-5.078 6.742-1.609 0-3.213-1.197-.451-2.584 2.762-1.388 3.344 1.577 3.664 4.475.292 2.634 6.254-3.777 7.349-4.98.113-.123.086-.304-.045-.406-.473-.344-1.645-.565-2.884 4.123-.063.243.212.441.428.3 3.483-2.289 20.855-14.037 19.967-19.771-.036-.221-.324-.3-.482-.133-2.231 2.408-14.316 15.733-10.846 18.495a.27.27 0 0 0 .292.026c.613-.3 2.97-1.533 5.566-4.02M207 14l-4 3M200 11h1"/></svg>